<svg width="268" height="110" viewBox="0 0 268 110" fill="none" xmlns="http://www.w3.org/2000/svg">
<mask id="path-1-inside-1_76_386" fill="white">
<path d="M0.812774 53.3152C16.5468 70.8678 35.9307 84.8387 57.8577 94.4302C79.7847 104.022 103.825 109.046 128.607 109.216C153.389 109.387 178.426 104.699 202.29 95.4225C226.154 86.1455 248.377 72.4605 267.689 55.1487L219.587 1.48682C208.028 11.8483 194.727 20.0391 180.444 25.5916C166.161 31.144 151.176 33.9494 136.343 33.8475C121.511 33.7456 107.122 30.7384 93.9984 24.9977C80.8746 19.257 69.2729 10.8951 59.8558 0.389467L0.812774 53.3152Z"/>
</mask>
<path d="M0.812774 53.3152C16.5468 70.8678 35.9307 84.8387 57.8577 94.4302C79.7847 104.022 103.825 109.046 128.607 109.216C153.389 109.387 178.426 104.699 202.29 95.4225C226.154 86.1455 248.377 72.4605 267.689 55.1487L219.587 1.48682C208.028 11.8483 194.727 20.0391 180.444 25.5916C166.161 31.144 151.176 33.9494 136.343 33.8475C121.511 33.7456 107.122 30.7384 93.9984 24.9977C80.8746 19.257 69.2729 10.8951 59.8558 0.389467L0.812774 53.3152Z" stroke="#152638" stroke-opacity="0.7" stroke-width="100" mask="url(#path-1-inside-1_76_386)"/>
</svg>
