<svg width="198" height="180" viewBox="0 0 198 180" fill="none" xmlns="http://www.w3.org/2000/svg">
<mask id="path-1-inside-1_73_226" fill="white">
<path d="M198 179.5C198 155.928 192.892 132.586 182.966 110.808C173.041 89.0304 158.493 69.2424 140.154 52.5743C121.814 35.9062 100.042 22.6843 76.08 13.6636C52.1182 4.6429 26.4361 -1.03038e-06 0.499991 0L0.499995 72.0653C16.0233 72.0653 31.3946 74.8442 45.7363 80.2433C60.0779 85.6424 73.1091 93.556 84.0857 103.532C95.0624 113.508 103.77 125.352 109.71 138.387C115.651 151.421 118.708 165.391 118.708 179.5H198Z"/>
</mask>
<path d="M198 179.5C198 155.928 192.892 132.586 182.966 110.808C173.041 89.0304 158.493 69.2424 140.154 52.5743C121.814 35.9062 100.042 22.6843 76.08 13.6636C52.1182 4.6429 26.4361 -1.03038e-06 0.499991 0L0.499995 72.0653C16.0233 72.0653 31.3946 74.8442 45.7363 80.2433C60.0779 85.6424 73.1091 93.556 84.0857 103.532C95.0624 113.508 103.77 125.352 109.71 138.387C115.651 151.421 118.708 165.391 118.708 179.5H198Z" stroke="#152638" stroke-opacity="0.7" stroke-width="100" mask="url(#path-1-inside-1_73_226)"/>
</svg>
