<svg width="1599" height="1033" viewBox="0 0 1599 1033" fill="none" xmlns="http://www.w3.org/2000/svg">
<path d="M-52 806.109L-15.3634 771.853L19.3449 737.597L50.1968 704.684L99.3669 652.964L125.398 624.082L157.214 590.497L190.958 558.928L216.025 536.091L241.093 517.284L265.196 500.491L287.37 486.386L311.473 471.609L335.576 458.847L358.715 447.428L384.747 436.009L412.706 424.591L448.378 411.829L487.907 400.41L517.795 393.021L550.575 386.305L607.458 374.886L646.023 368.169L696.157 361.452L748.22 354.064L798.354 348.69L840.775 343.988L879.34 338.615L916.941 333.241L965.147 327.868L1018.17 319.136L1063.49 312.419L1119.41 301L1162.79 290.925L1201.36 280.178L1241.85 269.431L1282.34 257.341L1325.73 241.892L1367.19 226.443L1409.61 206.964L1449.14 188.157L1481.92 172.036L1506.98 159.274L1531.09 143.825L1561.94 121.66L1593.75 95.4639L1614 78" stroke="#84A6CC"/>
<path d="M-52 795.109L-15.3634 760.853L19.3449 726.597L50.1968 693.684L99.3669 641.964L125.398 613.082L157.214 579.497L190.958 547.928L216.025 525.091L241.093 506.284L265.196 489.491L287.37 475.386L311.473 460.609L335.576 447.847L358.715 436.428L384.747 425.009L412.706 413.591L448.378 400.829L487.907 389.41L517.795 382.021L550.575 375.305L607.458 363.886L646.023 357.169L696.157 350.452L748.22 343.064L798.354 337.69L840.775 332.988L879.34 327.615L916.941 322.241L965.147 316.868L1018.17 308.136L1063.49 301.419L1119.41 290L1162.79 279.925L1201.36 269.178L1241.85 258.431L1282.34 246.341L1325.73 230.892L1367.19 215.443L1409.61 195.964L1449.14 177.157L1481.92 161.036L1506.98 148.274L1531.09 132.825L1561.94 110.66L1593.75 84.4639L1614 67" stroke="#84A6CC"/>
<path d="M-52 784.109L-15.3634 749.853L19.3449 715.597L50.1968 682.684L99.3669 630.964L125.398 602.082L157.214 568.497L190.958 536.928L216.025 514.091L241.093 495.284L265.196 478.491L287.37 464.386L311.473 449.609L335.576 436.847L358.715 425.428L384.747 414.009L412.706 402.591L448.378 389.829L487.907 378.41L517.795 371.021L550.575 364.305L607.458 352.886L646.023 346.169L696.157 339.452L748.22 332.064L798.354 326.69L840.775 321.988L879.34 316.615L916.941 311.241L965.147 305.868L1018.17 297.136L1063.49 290.419L1119.41 279L1162.79 268.925L1201.36 258.178L1241.85 247.431L1282.34 235.341L1325.73 219.892L1367.19 204.443L1409.61 184.964L1449.14 166.157L1481.92 150.036L1506.98 137.274L1531.09 121.825L1561.94 99.6597L1593.75 73.4639L1614 56" stroke="#84A6CC"/>
<path d="M-52 773.109L-15.3634 738.853L19.3449 704.597L50.1968 671.684L99.3669 619.964L125.398 591.082L157.214 557.497L190.958 525.928L216.025 503.091L241.093 484.284L265.196 467.491L287.37 453.386L311.473 438.609L335.576 425.847L358.715 414.428L384.747 403.009L412.706 391.591L448.378 378.829L487.907 367.41L517.795 360.021L550.575 353.305L607.458 341.886L646.023 335.169L696.157 328.452L748.22 321.064L798.354 315.69L840.775 310.988L879.34 305.615L916.941 300.241L965.147 294.868L1018.17 286.136L1063.49 279.419L1119.41 268L1162.79 257.925L1201.36 247.178L1241.85 236.431L1282.34 224.341L1325.73 208.892L1367.19 193.443L1409.61 173.964L1449.14 155.157L1481.92 139.036L1506.98 126.274L1531.09 110.825L1561.94 88.6597L1593.75 62.4639L1614 45" stroke="#84A6CC"/>
<path d="M-52 762.109L-15.3634 727.853L19.3449 693.597L50.1968 660.684L99.3669 608.964L125.398 580.082L157.214 546.497L190.958 514.928L216.025 492.091L241.093 473.284L265.196 456.491L287.37 442.386L311.473 427.609L335.576 414.847L358.715 403.428L384.747 392.009L412.706 380.591L448.378 367.829L487.907 356.41L517.795 349.021L550.575 342.305L607.458 330.886L646.023 324.169L696.157 317.452L748.22 310.064L798.354 304.69L840.775 299.988L879.34 294.615L916.941 289.241L965.147 283.868L1018.17 275.136L1063.49 268.419L1119.41 257L1162.79 246.925L1201.36 236.178L1241.85 225.431L1282.34 213.341L1325.73 197.892L1367.19 182.443L1409.61 162.964L1449.14 144.157L1481.92 128.036L1506.98 115.274L1531.09 99.8254L1561.94 77.6597L1593.75 51.4639L1614 34" stroke="#84A6CC"/>
<path d="M-52 751.109L-15.3634 716.853L19.3449 682.597L50.1968 649.684L99.3669 597.964L125.398 569.082L157.214 535.497L190.958 503.928L216.025 481.091L241.093 462.284L265.196 445.491L287.37 431.386L311.473 416.609L335.576 403.847L358.715 392.428L384.747 381.009L412.706 369.591L448.378 356.829L487.907 345.41L517.795 338.021L550.575 331.305L607.458 319.886L646.023 313.169L696.157 306.452L748.22 299.064L798.354 293.69L840.775 288.988L879.34 283.615L916.941 278.241L965.147 272.868L1018.17 264.136L1063.49 257.419L1119.41 246L1162.79 235.925L1201.36 225.178L1241.85 214.431L1282.34 202.341L1325.73 186.892L1367.19 171.443L1409.61 151.964L1449.14 133.157L1481.92 117.036L1506.98 104.274L1531.09 88.8254L1561.94 66.6597L1593.75 40.4639L1614 23" stroke="#84A6CC"/>
<path d="M-52 740.109L-15.3634 705.853L19.3449 671.597L50.1968 638.684L99.3669 586.964L125.398 558.082L157.214 524.497L190.958 492.928L216.025 470.091L241.093 451.284L265.196 434.491L287.37 420.386L311.473 405.609L335.576 392.847L358.715 381.428L384.747 370.009L412.706 358.591L448.378 345.829L487.907 334.41L517.795 327.021L550.575 320.305L607.458 308.886L646.023 302.169L696.157 295.452L748.22 288.064L798.354 282.69L840.775 277.988L879.34 272.615L916.941 267.241L965.147 261.868L1018.17 253.136L1063.49 246.419L1119.41 235L1162.79 224.925L1201.36 214.178L1241.85 203.431L1282.34 191.341L1325.73 175.892L1367.19 160.443L1409.61 140.964L1449.14 122.157L1481.92 106.036L1506.98 93.2742L1531.09 77.8254L1561.94 55.6597L1593.75 29.4639L1614 12" stroke="#84A6CC"/>
<path d="M-52 729.109L-15.3634 694.853L19.3449 660.597L50.1968 627.684L99.3669 575.964L125.398 547.082L157.214 513.497L190.958 481.928L216.025 459.091L241.093 440.284L265.196 423.491L287.37 409.386L311.473 394.609L335.576 381.847L358.715 370.428L384.747 359.009L412.706 347.591L448.378 334.829L487.907 323.41L517.795 316.021L550.575 309.305L607.458 297.886L646.023 291.169L696.157 284.452L748.22 277.064L798.354 271.69L840.775 266.988L879.34 261.615L916.941 256.241L965.147 250.868L1018.17 242.136L1063.49 235.419L1119.41 224L1162.79 213.925L1201.36 203.178L1241.85 192.431L1282.34 180.341L1325.73 164.892L1367.19 149.443L1409.61 129.964L1449.14 111.157L1481.92 95.0362L1506.98 82.2742L1531.09 66.8254L1561.94 44.6597L1593.75 18.4639L1614 1" stroke="#84A6CC"/>
<path d="M-52 815.736L-15.3634 781.48L19.3449 747.223L50.1968 714.311L99.3669 662.591L125.398 633.708L157.214 600.124L190.958 568.555L216.025 545.717L241.093 526.91L265.196 510.118L287.37 496.012L311.473 481.235L335.576 468.473L358.715 457.055L384.747 445.636L412.706 434.217L448.378 421.455L487.907 410.036L517.795 402.648L550.575 395.931L607.458 384.512L646.023 377.795L696.157 371.079L748.22 363.69L798.354 358.316L840.775 353.615L879.34 348.241L916.941 342.868L965.147 337.494L1018.17 328.762L1063.49 322.045L1119.41 310.627L1162.79 300.551L1201.36 289.804L1241.85 279.057L1282.34 266.967L1325.73 251.518L1367.19 236.069L1409.61 216.59L1449.14 197.783L1481.92 181.663L1506.98 168.901L1531.09 153.452L1561.94 131.286L1593.75 105.09L1614 87.6265" stroke="#84A6CC"/>
<path d="M-52 825.362L-15.3634 791.106L19.3449 756.85L50.1968 723.937L99.3669 672.217L125.398 643.335L157.214 609.75L190.958 578.181L216.025 555.344L241.093 536.536L265.196 519.744L287.37 505.639L311.473 490.862L335.576 478.1L358.715 466.681L384.747 455.262L412.706 443.844L448.378 431.081L487.907 419.663L517.795 412.274L550.575 405.557L607.458 394.139L646.023 387.422L696.157 380.705L748.22 373.316L798.354 367.943L840.775 363.241L879.34 357.868L916.941 352.494L965.147 347.121L1018.17 338.389L1063.49 331.672L1119.41 320.253L1162.79 310.178L1201.36 299.431L1241.85 288.684L1282.34 276.593L1325.73 261.145L1367.19 245.696L1409.61 226.217L1449.14 207.41L1481.92 191.289L1506.98 178.527L1531.09 163.078L1561.94 140.913L1593.75 114.717L1614 97.2529" stroke="#84A6CC"/>
<path d="M-52 848.991L-15.3634 814.734L19.3449 780.478L50.1968 747.566L99.3669 695.846L125.398 666.963L157.214 633.379L190.958 601.81L216.025 578.972L241.093 560.165L265.196 543.373L287.37 529.267L311.473 514.49L335.576 501.728L358.715 490.309L384.747 478.891L412.706 467.472L448.378 454.71L487.907 443.291L517.795 435.903L550.575 429.186L607.458 417.767L646.023 411.05L696.157 404.333L748.22 396.945L798.354 391.571L840.775 386.87L879.34 381.496L916.941 376.123L965.147 370.749L1018.17 362.017L1063.49 355.3L1119.41 343.882L1162.79 333.806L1201.36 323.059L1241.85 312.312L1282.34 300.222L1325.73 284.773L1367.19 269.324L1409.61 249.845L1449.14 231.038L1481.92 214.918L1506.98 202.156L1531.09 186.707L1561.94 164.541L1593.75 138.345L1614 120.881" stroke="#84A6CC"/>
<path d="M-52 883.121L-15.3634 848.865L19.3449 814.609L50.1968 781.696L99.3669 729.976L125.398 701.093L157.214 667.509L190.958 635.94L216.025 613.102L241.093 594.295L265.196 577.503L287.37 563.397L311.473 548.62L335.576 535.858L358.715 524.44L384.747 513.021L412.706 501.602L448.378 488.84L487.907 477.421L517.795 470.033L550.575 463.316L607.458 451.897L646.023 445.18L696.157 438.464L748.22 431.075L798.354 425.702L840.775 421L879.34 415.626L916.941 410.253L965.147 404.879L1018.17 396.147L1063.49 389.43L1119.41 378.012L1162.79 367.936L1201.36 357.189L1241.85 346.442L1282.34 334.352L1325.73 318.903L1367.19 303.454L1409.61 283.976L1449.14 265.168L1481.92 249.048L1506.98 236.286L1531.09 220.837L1561.94 198.671L1593.75 172.475L1614 155.012" stroke="#84A6CC"/>
<path d="M-52 912L-15.3634 877.744L19.3449 843.488L50.1968 810.575L99.3669 758.855L125.398 729.973L157.214 696.388L190.958 664.819L216.025 641.982L241.093 623.174L265.196 606.382L287.37 592.277L311.473 577.5L335.576 564.738L358.715 553.319L384.747 541.9L412.706 530.482L448.378 517.719L487.907 506.301L517.795 498.912L550.575 492.195L607.458 480.777L646.023 474.06L696.157 467.343L748.22 459.954L798.354 454.581L840.775 449.879L879.34 444.506L916.941 439.132L965.147 433.759L1018.17 425.027L1063.49 418.31L1119.41 406.891L1162.79 396.816L1201.36 386.069L1241.85 375.322L1282.34 363.231L1325.73 347.783L1367.19 332.334L1409.61 312.855L1449.14 294.048L1481.92 277.927L1506.98 265.165L1531.09 249.716L1561.94 227.551L1593.75 201.355L1614 183.891" stroke="#84A6CC"/>
<path d="M-62 946.109L-25.3634 911.853L9.34491 877.597L40.1968 844.684L89.3669 792.964L115.398 764.082L147.214 730.497L180.958 698.928L206.025 676.091L231.093 657.284L255.196 640.491L277.37 626.386L301.473 611.609L325.576 598.847L348.715 587.428L374.747 576.009L402.706 564.591L438.378 551.829L477.907 540.41L507.795 533.021L540.575 526.305L597.458 514.886L636.023 508.169L686.157 501.452L738.22 494.064L788.354 488.69L830.775 483.988L869.34 478.615L906.941 473.241L955.147 467.868L1008.17 459.136L1053.49 452.419L1109.41 441L1152.79 430.925L1191.36 420.178L1231.85 409.431L1272.34 397.341L1315.73 381.892L1357.19 366.443L1399.61 346.964L1439.14 328.157L1471.92 312.036L1496.98 299.274L1521.09 283.825L1551.94 261.66L1583.75 235.464L1604 218" stroke="#84A6CC"/>
<path d="M-62 957.109L-25.3634 922.853L9.34491 888.597L40.1968 855.684L89.3669 803.964L115.398 775.082L147.214 741.497L180.958 709.928L206.025 687.091L231.093 668.284L255.196 651.491L277.37 637.386L301.473 622.609L325.576 609.847L348.715 598.428L374.747 587.009L402.706 575.591L438.378 562.829L477.907 551.41L507.795 544.021L540.575 537.305L597.458 525.886L636.023 519.169L686.157 512.452L738.22 505.064L788.354 499.69L830.775 494.988L869.34 489.615L906.941 484.241L955.147 478.868L1008.17 470.136L1053.49 463.419L1109.41 452L1152.79 441.925L1191.36 431.178L1231.85 420.431L1272.34 408.341L1315.73 392.892L1357.19 377.443L1399.61 357.964L1439.14 339.157L1471.92 323.036L1496.98 310.274L1521.09 294.825L1551.94 272.66L1583.75 246.464L1604 229" stroke="#84A6CC"/>
<path d="M-62 972.109L-25.3634 937.853L9.34491 903.597L40.1968 870.684L89.3669 818.964L115.398 790.082L147.214 756.497L180.958 724.928L206.025 702.091L231.093 683.284L255.196 666.491L277.37 652.386L301.473 637.609L325.576 624.847L348.715 613.428L374.747 602.009L402.706 590.591L438.378 577.829L477.907 566.41L507.795 559.021L540.575 552.305L597.458 540.886L636.023 534.169L686.157 527.452L738.22 520.064L788.354 514.69L830.775 509.988L869.34 504.615L906.941 499.241L955.147 493.868L1008.17 485.136L1053.49 478.419L1109.41 467L1152.79 456.925L1191.36 446.178L1231.85 435.431L1272.34 423.341L1315.73 407.892L1357.19 392.443L1399.61 372.964L1439.14 354.157L1471.92 338.036L1496.98 325.274L1521.09 309.825L1551.94 287.66L1583.75 261.464L1604 244" stroke="#84A6CC"/>
<path d="M-62 987.109L-25.3634 952.853L9.34491 918.597L40.1968 885.684L89.3669 833.964L115.398 805.082L147.214 771.497L180.958 739.928L206.025 717.091L231.093 698.284L255.196 681.491L277.37 667.386L301.473 652.609L325.576 639.847L348.715 628.428L374.747 617.009L402.706 605.591L438.378 592.829L477.907 581.41L507.795 574.021L540.575 567.305L597.458 555.886L636.023 549.169L686.157 542.452L738.22 535.064L788.354 529.69L830.775 524.988L869.34 519.615L906.941 514.241L955.147 508.868L1008.17 500.136L1053.49 493.419L1109.41 482L1152.79 471.925L1191.36 461.178L1231.85 450.431L1272.34 438.341L1315.73 422.892L1357.19 407.443L1399.61 387.964L1439.14 369.157L1471.92 353.036L1496.98 340.274L1521.09 324.825L1551.94 302.66L1583.75 276.464L1604 259" stroke="#84A6CC"/>
<path d="M-62 1002.11L-25.3634 967.853L9.34491 933.597L40.1968 900.684L89.3669 848.964L115.398 820.082L147.214 786.497L180.958 754.928L206.025 732.091L231.093 713.284L255.196 696.491L277.37 682.386L301.473 667.609L325.576 654.847L348.715 643.428L374.747 632.009L402.706 620.591L438.378 607.829L477.907 596.41L507.795 589.021L540.575 582.305L597.458 570.886L636.023 564.169L686.157 557.452L738.22 550.064L788.354 544.69L830.775 539.988L869.34 534.615L906.941 529.241L955.147 523.868L1008.17 515.136L1053.49 508.419L1109.41 497L1152.79 486.925L1191.36 476.178L1231.85 465.431L1272.34 453.341L1315.73 437.892L1357.19 422.443L1399.61 402.964L1439.14 384.157L1471.92 368.036L1496.98 355.274L1521.09 339.825L1551.94 317.66L1583.75 291.464L1604 274" stroke="#84A6CC"/>
<path d="M-62 1017.11L-25.3634 982.853L9.34491 948.597L40.1968 915.684L89.3669 863.964L115.398 835.082L147.214 801.497L180.958 769.928L206.025 747.091L231.093 728.284L255.196 711.491L277.37 697.386L301.473 682.609L325.576 669.847L348.715 658.428L374.747 647.009L402.706 635.591L438.378 622.829L477.907 611.41L507.795 604.021L540.575 597.305L597.458 585.886L636.023 579.169L686.157 572.452L738.22 565.064L788.354 559.69L830.775 554.988L869.34 549.615L906.941 544.241L955.147 538.868L1008.17 530.136L1053.49 523.419L1109.41 512L1152.79 501.925L1191.36 491.178L1231.85 480.431L1272.34 468.341L1315.73 452.892L1357.19 437.443L1399.61 417.964L1439.14 399.157L1471.92 383.036L1496.98 370.274L1521.09 354.825L1551.94 332.66L1583.75 306.464L1604 289" stroke="#84A6CC"/>
<path d="M-62 1032.11L-25.3634 997.853L9.34491 963.597L40.1968 930.684L89.3669 878.964L115.398 850.082L147.214 816.497L180.958 784.928L206.025 762.091L231.093 743.284L255.196 726.491L277.37 712.386L301.473 697.609L325.576 684.847L348.715 673.428L374.747 662.009L402.706 650.591L438.378 637.829L477.907 626.41L507.795 619.021L540.575 612.305L597.458 600.886L636.023 594.169L686.157 587.452L738.22 580.064L788.354 574.69L830.775 569.988L869.34 564.615L906.941 559.241L955.147 553.868L1008.17 545.136L1053.49 538.419L1109.41 527L1152.79 516.925L1191.36 506.178L1231.85 495.431L1272.34 483.341L1315.73 467.892L1357.19 452.443L1399.61 432.964L1439.14 414.157L1471.92 398.036L1496.98 385.274L1521.09 369.825L1551.94 347.66L1583.75 321.464L1604 304" stroke="#84A6CC"/>
<path d="M-52 926L-15.3634 891.744L19.3449 857.488L50.1968 824.575L99.3669 772.855L125.398 743.973L157.214 710.388L190.958 678.819L216.025 655.982L241.093 637.174L265.196 620.382L287.37 606.277L311.473 591.5L335.576 578.738L358.715 567.319L384.747 555.9L412.706 544.482L448.378 531.719L487.907 520.301L517.795 512.912L550.575 506.195L607.458 494.777L646.023 488.06L696.157 481.343L748.22 473.954L798.354 468.581L840.775 463.879L879.34 458.506L916.941 453.132L965.147 447.759L1018.17 439.027L1063.49 432.31L1119.41 420.891L1162.79 410.816L1201.36 400.069L1241.85 389.322L1282.34 377.231L1325.73 361.783L1367.19 346.334L1409.61 326.855L1449.14 308.048L1481.92 291.927L1506.98 279.165L1531.09 263.716L1561.94 241.551L1593.75 215.355L1614 197.891" stroke="#84A6CC"/>
<path d="M-52 896.248L-15.3634 861.992L19.3449 827.736L50.1968 794.823L99.3669 743.103L125.398 714.22L157.214 680.636L190.958 649.067L216.025 626.229L241.093 607.422L265.196 590.63L287.37 576.524L311.473 561.747L335.576 548.985L358.715 537.567L384.747 526.148L412.706 514.729L448.378 501.967L487.907 490.548L517.795 483.16L550.575 476.443L607.458 465.024L646.023 458.307L696.157 451.591L748.22 444.202L798.354 438.829L840.775 434.127L879.34 428.753L916.941 423.38L965.147 418.006L1018.17 409.274L1063.49 402.557L1119.41 391.139L1162.79 381.063L1201.36 370.316L1241.85 359.569L1282.34 347.479L1325.73 332.03L1367.19 316.581L1409.61 297.102L1449.14 278.295L1481.92 262.175L1506.98 249.413L1531.09 233.964L1561.94 211.798L1593.75 185.602L1614 168.139" stroke="#84A6CC"/>
<path d="M-52 871.744L-15.3634 837.488L19.3449 803.232L50.1968 770.319L99.3669 718.599L125.398 689.717L157.214 656.132L190.958 624.563L216.025 601.726L241.093 582.918L265.196 566.126L287.37 552.021L311.473 537.244L335.576 524.482L358.715 513.063L384.747 501.644L412.706 490.226L448.378 477.463L487.907 466.045L517.795 458.656L550.575 451.939L607.458 440.521L646.023 433.804L696.157 427.087L748.22 419.698L798.354 414.325L840.775 409.623L879.34 404.25L916.941 398.876L965.147 393.503L1018.17 384.771L1063.49 378.054L1119.41 366.635L1162.79 356.56L1201.36 345.813L1241.85 335.066L1282.34 322.975L1325.73 307.527L1367.19 292.078L1409.61 272.599L1449.14 253.792L1481.92 237.671L1506.98 224.909L1531.09 209.46L1561.94 187.295L1593.75 161.099L1614 143.635" stroke="#84A6CC"/>
<path d="M-52 859.492L-15.3634 825.236L19.3449 790.98L50.1968 758.067L99.3669 706.347L125.398 677.465L157.214 643.88L190.958 612.311L216.025 589.474L241.093 570.667L265.196 553.874L287.37 539.769L311.473 524.992L335.576 512.23L358.715 500.811L384.747 489.392L412.706 477.974L448.378 465.212L487.907 453.793L517.795 446.404L550.575 439.687L607.458 428.269L646.023 421.552L696.157 414.835L748.22 407.447L798.354 402.073L840.775 397.371L879.34 391.998L916.941 386.624L965.147 381.251L1018.17 372.519L1063.49 365.802L1119.41 354.383L1162.79 344.308L1201.36 333.561L1241.85 322.814L1282.34 310.724L1325.73 295.275L1367.19 279.826L1409.61 260.347L1449.14 241.54L1481.92 225.419L1506.98 212.657L1531.09 197.208L1561.94 175.043L1593.75 148.847L1614 131.383" stroke="#84A6CC"/>
<path d="M-52 836.739L-15.3634 802.483L19.3449 768.227L50.1968 735.314L99.3669 683.594L125.398 654.711L157.214 621.127L190.958 589.558L216.025 566.72L241.093 547.913L265.196 531.121L287.37 517.015L311.473 502.238L335.576 489.476L358.715 478.058L384.747 466.639L412.706 455.22L448.378 442.458L487.907 431.04L517.795 423.651L550.575 416.934L607.458 405.515L646.023 398.799L696.157 392.082L748.22 384.693L798.354 379.32L840.775 374.618L879.34 369.244L916.941 363.871L965.147 358.497L1018.17 349.765L1063.49 343.048L1119.41 331.63L1162.79 321.554L1201.36 310.807L1241.85 300.06L1282.34 287.97L1325.73 272.521L1367.19 257.072L1409.61 237.594L1449.14 218.786L1481.92 202.666L1506.98 189.904L1531.09 174.455L1561.94 152.289L1593.75 126.093L1614 108.63" stroke="#84A6CC"/>
</svg>
