<svg width="459" height="208" viewBox="0 0 459 208" fill="none" xmlns="http://www.w3.org/2000/svg">
<path d="M397.203 34.7885C404.471 39.4458 406.86 45.8165 404.812 53.4115C402.765 61.0041 396.294 69.7713 385.975 79.1589C365.339 97.9314 329.382 119.123 282.983 138.273C236.584 157.422 188.568 170.887 148.463 177.184C128.408 180.332 110.364 181.683 95.507 181.066C80.6457 180.45 69.069 177.871 61.8014 173.214C54.5337 168.557 52.1452 162.186 54.1927 154.591C56.2396 146.998 62.7103 138.231 73.0297 128.844C93.6655 110.071 129.623 88.8791 176.022 69.7296C222.421 50.5801 270.436 37.115 310.541 30.8189C330.597 27.6704 348.641 26.3199 363.498 26.9362C378.359 27.5526 389.936 30.1312 397.203 34.7885Z" stroke="#8EA8C6" stroke-opacity="0.4"/>
<path d="M420.926 58.7372C425.942 64.1911 425.603 70.6993 420.41 77.8549C415.228 84.9968 405.267 92.6975 391.323 100.491C363.438 116.075 319.711 131.981 266.747 144.505C213.783 157.028 161.647 163.789 120.18 164.604C99.4423 165.011 81.4064 163.93 67.2857 161.352C53.1381 158.77 43.0881 154.718 38.0727 149.264C33.0572 143.81 33.3964 137.302 38.5888 130.146C43.7713 123.005 53.7316 115.304 67.6765 107.51C95.5609 91.9262 139.288 76.0201 192.252 63.4966C245.216 50.9731 297.353 44.2119 338.819 43.3977C359.557 42.9905 377.593 44.0714 391.713 46.649C405.861 49.2316 415.911 53.2832 420.926 58.7372Z" stroke="#8EA8C6" stroke-opacity="0.4"/>
<path d="M61.8588 34.7063C69.1305 30.0525 80.7094 27.4795 95.5713 26.8702C110.428 26.2611 128.472 27.6204 148.524 30.7785C188.624 37.094 236.628 50.5822 283.01 69.7542C329.393 88.9261 365.332 110.135 385.952 128.918C396.263 138.31 402.727 147.081 404.767 154.674C406.808 162.27 404.414 168.64 397.142 173.294C389.871 177.948 378.292 180.521 363.43 181.13C348.573 181.739 330.53 180.38 310.477 177.221C270.377 170.906 222.374 157.418 175.991 138.246C129.608 119.074 93.6689 97.8646 73.0492 79.0822C62.7378 69.6896 56.2746 60.9193 54.2342 53.3257C52.1932 45.7298 54.5871 39.3602 61.8588 34.7063Z" stroke="#8EA8C6" stroke-opacity="0.4"/>
<path d="M38.0734 58.7373C43.0889 53.2833 53.1389 49.2317 67.2864 46.6491C81.4071 44.0715 99.443 42.9906 120.18 43.3978C161.647 44.212 213.784 50.9732 266.748 63.4967C319.712 76.0201 363.439 91.9263 391.323 107.51C405.268 115.304 415.229 123.005 420.411 130.147C425.603 137.302 425.943 143.81 420.927 149.264C415.912 154.718 405.862 158.77 391.714 161.352C377.593 163.93 359.558 165.011 338.82 164.604C297.353 163.79 245.217 157.028 192.253 144.505C139.289 131.981 95.5616 116.075 67.6773 100.491C53.7323 92.6976 43.772 84.9969 38.5895 77.855C33.3971 70.6994 33.058 64.1912 38.0734 58.7373Z" stroke="#8EA8C6" stroke-opacity="0.4"/>
</svg>
