<svg width="1100" height="822" viewBox="0 0 1100 822" fill="none" xmlns="http://www.w3.org/2000/svg">
<g filter="url(#filter0_f_1_272)">
<path d="M1063.92 312.516C1068.25 332.772 1058.17 354.512 1035.97 376.515C1013.78 398.506 979.586 420.667 935.933 441.741C848.634 483.887 723.627 521.635 581.608 544.982C439.588 568.329 307.484 572.847 208.714 561.29C159.325 555.511 118.301 545.716 88.5456 532.264C58.7729 518.804 40.4024 501.742 36.0759 481.486C31.7494 461.231 41.832 439.491 64.0299 417.487C86.2147 395.497 120.413 373.336 164.066 352.261C251.366 310.116 376.372 272.368 518.392 249.021C660.411 225.674 792.515 221.155 891.286 232.712C940.674 238.492 981.699 248.287 1011.45 261.739C1041.23 275.198 1059.6 292.261 1063.92 312.516Z" stroke="#ABC6E6"/>
<path d="M959.544 111.858C974.169 128.026 976.809 151.397 968.886 179.935C960.967 208.463 942.515 242.062 915.123 278.571C860.343 351.586 769.876 436.153 656.7 514.951C543.525 593.749 429.103 651.835 335.609 682.055C288.86 697.166 247.372 705.3 213.904 705.587C180.426 705.875 155.081 698.312 140.455 682.145C125.83 665.978 123.191 642.606 131.113 614.068C139.032 585.54 157.484 551.941 184.876 515.432C239.657 442.417 330.123 357.85 443.299 279.052C556.474 200.255 670.897 142.168 764.39 111.948C811.14 96.8371 852.628 88.7029 886.095 88.4157C919.574 88.1285 944.918 95.6911 959.544 111.858Z" stroke="#ABC6E6"/>
<path d="M63.8659 228.117C72.5187 208.947 94.2663 195.27 126.414 187.037C158.545 178.809 200.944 176.055 250.682 178.641C350.15 183.815 478.848 210.344 613.188 257.015C747.528 303.685 862.038 361.647 938.576 417.619C976.848 445.607 1005.6 473.08 1022.6 498.377C1039.61 523.686 1044.79 546.717 1036.13 565.887C1027.48 585.056 1005.73 598.733 973.586 606.966C941.455 615.194 899.056 617.949 849.318 615.362C749.85 610.188 621.152 583.659 486.812 536.989C352.472 490.319 237.962 432.357 161.424 376.384C123.152 348.397 94.3972 320.923 77.3985 295.627C60.3911 270.318 55.213 247.286 63.8659 228.117Z" stroke="#ABC6E6"/>
<path d="M169.761 82.1733C185.915 67.1577 211.909 61.526 245.234 64.3241C278.55 67.1216 319.091 78.3388 364.195 96.9022C454.398 134.027 562.736 200.485 667.813 287.486C772.89 374.487 854.779 465.531 902.239 542.387C925.97 580.818 941.078 615.677 946.187 644.694C951.298 673.719 946.391 696.811 930.238 711.827C914.084 726.842 888.09 732.474 854.765 729.676C821.449 726.878 780.908 715.661 735.803 697.098C645.601 659.973 537.263 593.515 432.186 506.514C327.109 419.513 245.22 328.469 197.76 251.613C174.029 213.182 158.921 178.323 153.812 149.306C148.701 120.281 153.608 97.1889 169.761 82.1733Z" stroke="#ABC6E6"/>
</g>
<defs>
<filter id="filter0_f_1_272" x="32.5889" y="61.1655" width="1034.82" height="671.669" filterUnits="userSpaceOnUse" color-interpolation-filters="sRGB">
<feFlood flood-opacity="0" result="BackgroundImageFix"/>
<feBlend mode="normal" in="SourceGraphic" in2="BackgroundImageFix" result="shape"/>
<feGaussianBlur stdDeviation="1" result="effect1_foregroundBlur_1_272"/>
</filter>
</defs>
</svg>
