<svg width="35" height="26" viewBox="0 0 35 26" fill="none" xmlns="http://www.w3.org/2000/svg">
<line x1="0.369141" y1="2.13156" x2="35.0009" y2="2.13156" stroke="#37495E" stroke-width="2.4737"/>
<line x1="0.369141" y1="24.3947" x2="35.0009" y2="24.3947" stroke="#37495E" stroke-width="2.4737"/>
<path d="M0.839143 9.36963L0.851511 9.18411H2.48415L5.44022 15.4549L8.34681 9.18411H9.97945C9.97945 9.2006 9.98357 9.22946 9.99182 9.27069C10.0001 9.31191 10.0001 9.3449 9.99182 9.36963L9.33629 9.44384C9.25383 9.45209 9.20436 9.50569 9.18787 9.60463V17.607L10.1031 17.6565C10.1031 17.6648 10.099 17.7266 10.0908 17.842L7.6047 17.8544L7.61707 17.6813L8.26023 17.5947C8.34269 17.5864 8.39216 17.537 8.40865 17.4462V9.62937L5.58864 15.727L5.34127 16.2218H5.05679L1.92757 9.617V17.5823L3.33758 17.6565C3.33758 17.6648 3.33345 17.7266 3.32521 17.842L0.839143 17.8544L0.851511 17.6813L1.49467 17.5947C1.57713 17.5864 1.6266 17.5328 1.64309 17.4339V9.60463C1.6266 9.50569 1.57713 9.45209 1.49467 9.44384L0.839143 9.36963ZM10.8788 9.36963L10.8911 9.18411H16.1848L16.1725 9.22121L16.3333 10.9652L16.0859 11.0641L15.888 9.43148H12.5238V13.4265H15.4798C15.5211 13.4347 15.5582 13.4265 15.5912 13.4018C15.6241 13.3688 15.6406 13.3275 15.6406 13.2781L15.6901 12.4246L15.888 12.3999V14.5149C15.8798 14.5149 15.8179 14.519 15.7025 14.5273L15.653 13.6739H12.5238V17.5947H16.222L16.457 15.6157L16.692 15.6776L16.5064 17.842H13.3648L10.8788 17.8544L10.8911 17.6813L11.5343 17.5947C11.6168 17.5864 11.6662 17.5328 11.6827 17.4339V9.60463C11.6662 9.50569 11.6168 9.45209 11.5343 9.44384L10.8788 9.36963ZM17.4372 9.36963L17.4495 9.18411H19.144L23.9553 17.4957L23.8935 9.617C23.8605 9.53455 23.8152 9.4892 23.7574 9.48095L22.6195 9.382C22.6113 9.33253 22.6072 9.27069 22.6072 9.19647L24.9572 9.18411C24.9572 9.19235 24.9613 9.25419 24.9696 9.36963L24.178 9.45621V17.842H23.2751L18.4637 9.53042L18.5256 17.5823L19.9356 17.6565C19.9356 17.6648 19.9315 17.7266 19.9232 17.842L17.4372 17.8544L17.4495 17.6813L18.0927 17.5947C18.1751 17.5864 18.2246 17.5328 18.2411 17.4339V9.60463C18.2246 9.50569 18.1751 9.45209 18.0927 9.44384L17.4372 9.36963ZM28.3794 9.18411C28.3794 9.19235 28.3835 9.25419 28.3918 9.36963L27.5507 9.44384V14.1191C27.5507 15.5539 27.8022 16.5062 28.3052 16.9762C28.5443 17.2071 28.7876 17.3679 29.0349 17.4586C29.2823 17.5411 29.5709 17.5823 29.9007 17.5823C30.2388 17.5823 30.5439 17.537 30.816 17.4462C31.0881 17.3555 31.352 17.1906 31.6076 16.9515C32.1518 16.4568 32.4239 15.5126 32.4239 14.1191V9.64174C32.4074 9.53455 32.3579 9.47683 32.2755 9.46858L31.3849 9.382C31.3767 9.33253 31.3726 9.27069 31.3726 9.19647L33.7226 9.18411C33.7226 9.19235 33.7267 9.25419 33.7349 9.36963L32.7084 9.48095V14.1315C32.7084 16.6382 31.7725 17.8915 29.9007 17.8915C29.4472 17.8915 29.0473 17.8462 28.701 17.7555C28.3629 17.6565 28.0331 17.4792 27.7115 17.2236C27.0436 16.7041 26.7097 15.6734 26.7097 14.1315V9.60463C26.6767 9.50569 26.6272 9.45209 26.5612 9.44384L25.9181 9.382C25.9098 9.33253 25.9057 9.27069 25.9057 9.19647L28.3794 9.18411Z" fill="#37495E"/>
</svg>
