<svg width="226" height="89" viewBox="0 0 226 89" fill="none" xmlns="http://www.w3.org/2000/svg">
<path d="M35.047 47.9C35.047 47.9287 35.0613 48.1437 35.09 48.545L32.639 48.76L23.437 67.852V77.183L26.576 77.355C26.576 77.3837 26.5617 77.5987 26.533 78L17.933 78.043C17.933 77.785 17.9473 77.5843 17.976 77.441L20.212 77.14C20.4987 77.1113 20.6707 76.925 20.728 76.581V67.852L11.053 48.975C10.9383 48.889 10.8237 48.8173 10.709 48.76L8.903 48.588C8.87433 48.416 8.86 48.201 8.86 47.943L17.546 47.9C17.546 47.9287 17.5603 48.1437 17.589 48.545L14.063 48.846L22.964 67.121L31.005 49.491C31.005 49.147 30.876 48.9607 30.618 48.932L26.705 48.588C26.6763 48.416 26.662 48.201 26.662 47.943L35.047 47.9Z" fill="#37495E"/>
<path d="M35.993 28.9C35.993 28.9287 36.0073 29.1437 36.036 29.545L33.327 29.803L23.867 59H21.029L11.225 30.018C11.139 29.9033 11.0243 29.8317 10.881 29.803L8.645 29.588C8.61633 29.416 8.602 29.201 8.602 28.943L17.202 28.9C17.202 28.9287 17.2163 29.1437 17.245 29.545L14.063 29.846L23.566 58.183L31.908 30.878L31.951 30.491C31.951 30.147 31.822 29.9607 31.564 29.932L27.651 29.588C27.6223 29.416 27.608 29.201 27.608 28.943L35.993 28.9Z" fill="#37495E"/>
<path d="M57.32 47C57.32 47.0133 57.3267 47.1133 57.34 47.3L55.78 47.44L59.1 60.48L62.82 47H63.12L63.06 47.16L63.14 47L66.66 60.52L70.18 47.7C70.18 47.5667 70.12 47.4933 70 47.48L68.12 47.32L68.1 47.02L72.02 47C72.02 47.0133 72.0267 47.1133 72.04 47.3L70.74 47.42L66.78 61H65.56L62.54 49.06L59.24 61H58L54.56 47.58C54.52 47.4867 54.4533 47.4333 54.36 47.42L53.32 47.32L53.3 47.02L57.32 47ZM84.8573 47C84.8573 47.0133 84.864 47.1133 84.8773 47.3L83.7373 47.4L79.4573 56.28V60.62L80.9173 60.7C80.9173 60.7133 80.9107 60.8133 80.8973 61L76.8973 61.02C76.8973 60.9 76.904 60.8067 76.9173 60.74L77.9573 60.6C78.0907 60.5867 78.1707 60.5 78.1973 60.34V56.28L73.6973 47.5C73.644 47.46 73.5907 47.4267 73.5373 47.4L72.6973 47.32C72.684 47.24 72.6773 47.14 72.6773 47.02L76.7173 47C76.7173 47.0133 76.724 47.1133 76.7373 47.3L75.0973 47.44L79.2373 55.94L82.9773 47.74C82.9773 47.58 82.9173 47.4933 82.7973 47.48L80.9773 47.32C80.964 47.24 80.9573 47.14 80.9573 47.02L84.8573 47ZM98.0903 47C98.0903 47.0133 98.097 47.1133 98.1103 47.3L96.8503 47.42L92.4503 61H91.1303L86.5703 47.52C86.5303 47.4667 86.477 47.4333 86.4103 47.42L85.3703 47.32C85.357 47.24 85.3503 47.14 85.3503 47.02L89.3503 47C89.3503 47.0133 89.357 47.1133 89.3703 47.3L87.8903 47.44L92.3103 60.62L96.1903 47.92L96.2103 47.74C96.2103 47.58 96.1503 47.4933 96.0303 47.48L94.2103 47.32C94.197 47.24 94.1903 47.14 94.1903 47.02L98.0903 47ZM99.2344 61.02L99.2544 60.74L100.294 60.6C100.428 60.5867 100.508 60.5 100.534 60.34H100.554V47.7H100.534C100.508 47.5267 100.428 47.4333 100.294 47.42L99.2544 47.32L99.2344 47.02L103.254 47C103.254 47.0133 103.261 47.1133 103.274 47.3L101.914 47.42V60.62L103.274 60.7C103.274 60.7133 103.268 60.8133 103.254 61L99.2344 61.02ZM114.566 47C114.566 47.0133 114.573 47.1133 114.586 47.3L113.026 47.44L116.346 60.48L120.066 47H120.366L120.306 47.16L120.386 47L123.906 60.52L127.426 47.7C127.426 47.5667 127.366 47.4933 127.246 47.48L125.366 47.32L125.346 47.02L129.266 47C129.266 47.0133 129.273 47.1133 129.286 47.3L127.986 47.42L124.026 61H122.806L119.786 49.06L116.486 61H115.246L111.806 47.58C111.766 47.4867 111.699 47.4333 111.606 47.42L110.566 47.32L110.546 47.02L114.566 47ZM129.477 56.4C129.477 59.28 130.597 60.72 132.837 60.72C133.424 60.72 134.051 60.66 134.717 60.54C135.384 60.4067 135.811 60.2867 135.997 60.18L136.137 60.38C135.831 60.58 135.324 60.7467 134.617 60.88C133.924 61.0133 133.284 61.08 132.697 61.08C132.124 61.08 131.604 61.02 131.137 60.9C130.684 60.78 130.217 60.5667 129.737 60.26C129.257 59.9533 128.877 59.4733 128.597 58.82C128.317 58.1667 128.177 57.3667 128.177 56.42C128.177 54.66 128.631 53.3133 129.537 52.38C130.484 51.4067 131.584 50.92 132.837 50.92C134.091 50.92 135.044 51.2667 135.697 51.96C136.364 52.6533 136.697 53.6267 136.697 54.88C136.697 55.1467 136.677 55.4333 136.637 55.74H129.497C129.484 55.8867 129.477 56.1067 129.477 56.4ZM135.517 54.74C135.517 53.74 135.297 52.9267 134.857 52.3C134.417 51.66 133.817 51.34 133.057 51.34C132.071 51.34 131.237 51.7733 130.557 52.64C130.011 53.32 129.671 54.2267 129.537 55.36H135.497C135.511 55.2133 135.517 55.0067 135.517 54.74ZM140.644 46.82V51.8C141.444 51.1467 142.337 50.82 143.324 50.82C144.231 50.82 145.084 51.1 145.884 51.66C146.311 51.9667 146.651 52.4467 146.904 53.1C147.171 53.7533 147.304 54.5467 147.304 55.48C147.304 57.2533 146.864 58.5867 145.984 59.48C144.984 60.4933 143.717 61 142.184 61C141.611 61 141.037 60.9533 140.464 60.86C139.904 60.7667 139.531 60.66 139.344 60.54V46.66C139.317 46.5533 139.277 46.5 139.224 46.5L138.004 46.46L138.024 46.18C138.864 46.06 139.437 46 139.744 46C140.064 46 140.291 46.0867 140.424 46.26C140.571 46.4333 140.644 46.62 140.644 46.82ZM140.644 52.18V60.64C141.004 60.76 141.424 60.82 141.904 60.82C143.211 60.82 144.217 60.36 144.924 59.44C145.644 58.52 146.004 57.2333 146.004 55.58C146.004 53.7667 145.644 52.5467 144.924 51.92C144.364 51.4267 143.717 51.18 142.984 51.18C142.251 51.18 141.471 51.5133 140.644 52.18ZM158.492 47C158.492 47.0133 158.499 47.1133 158.512 47.3L156.952 47.44L160.272 60.48L163.992 47H164.292L164.232 47.16L164.312 47L167.832 60.52L171.352 47.7C171.352 47.5667 171.292 47.4933 171.172 47.48L169.292 47.32L169.272 47.02L173.192 47C173.192 47.0133 173.199 47.1133 173.212 47.3L171.912 47.42L167.952 61H166.732L163.712 49.06L160.412 61H159.172L155.732 47.58C155.692 47.4867 155.625 47.4333 155.532 47.42L154.492 47.32L154.472 47.02L158.492 47ZM176.527 51.82V60.6L178.027 60.7C178.027 60.7133 178.02 60.8133 178.007 61L174.007 61.02C174.007 60.9 174.014 60.8067 174.027 60.74L175.067 60.6C175.147 60.6 175.2 60.54 175.227 60.42V51.64C175.2 51.5467 175.16 51.5 175.107 51.5L173.907 51.46L173.927 51.18C174.647 51.06 175.194 51 175.567 51C175.94 51 176.194 51.0867 176.327 51.26C176.46 51.4333 176.527 51.62 176.527 51.82ZM175.847 48.32C175.58 48.32 175.374 48.24 175.227 48.08C175.08 47.9067 175.007 47.6867 175.007 47.42C175.007 47.14 175.08 46.92 175.227 46.76C175.387 46.5867 175.6 46.5 175.867 46.5C176.134 46.5 176.347 46.5867 176.507 46.76C176.68 46.92 176.767 47.1467 176.767 47.44C176.767 47.72 176.68 47.94 176.507 48.1C176.334 48.2467 176.114 48.32 175.847 48.32ZM179.707 51H187.147L187.327 51.36H187.307L181.067 60.64H187.227L187.347 57.92L187.727 57.78V60.96L187.747 61H179.527L179.347 60.64L185.647 51.36H180.227L180.087 53.76L179.707 53.9V51ZM195.473 60.24H195.413C194.213 60.8 193.047 61.08 191.913 61.08C190.14 61.08 189.2 60.38 189.093 58.98C189.08 58.8867 189.073 58.8 189.073 58.72C189.073 57.6933 189.747 57.0067 191.093 56.66C191.893 56.4867 193.333 56.28 195.413 56.04V54.28C195.413 53.72 195.347 53.24 195.213 52.84C195.08 52.44 194.933 52.1467 194.773 51.96C194.613 51.76 194.407 51.6067 194.153 51.5C193.833 51.3667 193.473 51.3 193.073 51.3C192.687 51.3 192.24 51.4 191.733 51.6C191 51.9067 190.347 52.2933 189.773 52.76L189.693 54.32L189.313 54.42V52L189.513 51.92C190.553 51.4667 191.347 51.1933 191.893 51.1C192.44 51.0067 192.84 50.96 193.093 50.96C193.347 50.9467 193.587 50.9467 193.813 50.96C194.053 50.9733 194.36 51.0333 194.733 51.14C195.107 51.2467 195.427 51.4 195.693 51.6C195.973 51.7867 196.213 52.0733 196.413 52.46C196.613 52.8467 196.713 53.3067 196.713 53.84V59.96C196.713 60.3733 196.82 60.58 197.033 60.58L198.253 60.64L198.233 60.94C197.487 61.0467 196.82 61.1 196.233 61.1C196.073 61.0867 195.907 61.0067 195.733 60.86C195.56 60.7 195.473 60.4933 195.473 60.24ZM192.273 60.76C193.26 60.76 194.307 60.4133 195.413 59.72V56.42C193.413 56.4867 192.153 56.6067 191.633 56.78C191.127 56.94 190.773 57.2 190.573 57.56C190.387 57.9067 190.293 58.2533 190.293 58.6C190.293 58.6667 190.293 58.7333 190.293 58.8C190.333 59.4933 190.54 59.9933 190.913 60.3C191.287 60.6067 191.74 60.76 192.273 60.76ZM201.483 51.82V53.42C202.537 51.8733 203.57 51.0867 204.583 51.06C204.663 51.06 204.743 51.06 204.823 51.06L205.943 51.2L205.423 52.4C205.17 52.1467 204.843 52.02 204.443 52.02C203.47 52.0333 202.483 52.68 201.483 53.96V60.6L203.183 60.7C203.183 60.7133 203.177 60.8133 203.163 61L198.963 61.02C198.963 60.9 198.97 60.8067 198.983 60.74L200.023 60.6C200.13 60.5867 200.183 60.4933 200.183 60.32V51.64C200.157 51.5467 200.117 51.5 200.063 51.5L198.863 51.46L198.883 51.18C199.603 51.06 200.15 51 200.523 51C200.897 51 201.15 51.0867 201.283 51.26C201.417 51.4333 201.483 51.62 201.483 51.82ZM214.736 46.82V59.96C214.736 60.3733 214.842 60.58 215.056 60.58L216.256 60.64L216.236 60.94C215.596 61.0467 214.929 61.1 214.236 61.1C214.089 61.0867 213.929 61.0133 213.756 60.88C213.596 60.7467 213.502 60.5733 213.476 60.36C212.716 60.84 211.836 61.08 210.836 61.08C209.862 61.08 208.962 60.8067 208.136 60.26C207.669 59.9533 207.289 59.4733 206.996 58.82C206.716 58.1533 206.576 57.3467 206.576 56.4C206.576 54.6533 207.022 53.32 207.916 52.4C208.862 51.4133 209.942 50.92 211.156 50.92C211.902 50.92 212.662 51.1133 213.436 51.5V46.72C213.436 46.5733 213.396 46.5 213.316 46.5L212.096 46.46L212.116 46.18C212.956 46.06 213.529 46 213.836 46C214.156 46 214.382 46.0867 214.516 46.26C214.662 46.4333 214.736 46.62 214.736 46.82ZM211.096 60.72C211.909 60.72 212.689 60.54 213.436 60.18V51.82C212.849 51.46 212.269 51.28 211.696 51.28C210.549 51.28 209.622 51.72 208.916 52.6C208.222 53.48 207.876 54.74 207.876 56.38C207.876 59.2733 208.949 60.72 211.096 60.72ZM220.39 60.76C220.47 60.76 220.55 60.7533 220.63 60.74C221.323 60.7267 221.903 60.5133 222.37 60.1C222.837 59.6733 223.07 59.0533 223.07 58.24C223.07 57.44 222.443 56.86 221.19 56.5C220.67 56.3533 220.15 56.1933 219.63 56.02C219.11 55.8467 218.663 55.5733 218.29 55.2C217.93 54.8267 217.75 54.34 217.75 53.74C217.75 52.8867 218.077 52.2067 218.73 51.7C219.383 51.18 220.21 50.92 221.21 50.92C221.957 50.92 222.71 51.0533 223.47 51.32L223.83 51.46V53.76L223.45 53.9L223.37 52.2C222.597 51.5867 221.95 51.28 221.43 51.28C220.697 51.28 220.117 51.5 219.69 51.94C219.263 52.3667 219.05 52.94 219.05 53.66C219.05 54.0733 219.23 54.4067 219.59 54.66C219.963 54.9133 220.41 55.1133 220.93 55.26C221.45 55.4067 221.97 55.5733 222.49 55.76C223.01 55.9333 223.45 56.2267 223.81 56.64C224.183 57.04 224.37 57.5667 224.37 58.22C224.37 59.1 224.037 59.8 223.37 60.32C222.717 60.8267 221.783 61.08 220.57 61.08C219.357 61.08 218.35 60.7933 217.55 60.22V57.92L217.91 57.78L218.01 59.48C218.197 59.8267 218.53 60.1267 219.01 60.38C219.503 60.6333 219.963 60.76 220.39 60.76Z" fill="#37495E"/>
</svg>
