<svg width="86" height="53" viewBox="0 0 86 53" fill="none" xmlns="http://www.w3.org/2000/svg">
<path d="M74.3774 8.88907C75.7273 10.0655 76.1742 11.6773 75.7919 13.6056C75.4097 15.5336 74.2008 17.7626 72.2694 20.152C68.4075 24.9299 61.6757 30.326 52.9865 35.203C44.2973 40.0801 35.3073 43.5082 27.8017 45.1106C24.0482 45.912 20.675 46.2549 17.901 46.0984C15.1265 45.9419 12.9734 45.2878 11.6235 44.1113C10.2736 42.9348 9.8267 41.3231 10.209 39.3948C10.5911 37.4668 11.8001 35.2377 13.7314 32.8484C17.5934 28.0705 24.3251 22.6744 33.0144 17.7973C41.7036 12.9203 50.6935 9.49218 58.1991 7.88972C61.9526 7.08834 65.3259 6.7455 68.0999 6.90198C70.8744 7.0585 73.0274 7.7126 74.3774 8.88907Z" stroke="#35475B" stroke-opacity="0.4" stroke-width="0.3"/>
<path d="M78.8148 14.9832C79.7503 16.3666 79.6871 18.0157 78.7188 19.8305C77.7513 21.6436 75.8904 23.6012 73.2807 25.5847C68.0626 29.5508 59.8766 33.6009 49.9582 36.7903C40.0398 39.9797 30.2789 41.7008 22.5191 41.908C18.6383 42.0116 15.2674 41.7363 12.6315 41.0819C9.99316 40.427 8.12059 39.4004 7.18508 38.0169C6.24958 36.6335 6.31288 34.9844 7.28118 33.1696C8.24861 31.3565 10.1096 29.3989 12.7192 27.4154C17.9373 23.4493 26.1233 19.3992 36.0417 16.2098C45.9601 13.0203 55.721 11.2993 63.4809 11.0921C67.3617 10.9885 70.7325 11.2638 73.3685 11.9181C76.0068 12.5731 77.8793 13.5997 78.8148 14.9832Z" stroke="#35475B" stroke-opacity="0.4" stroke-width="0.3"/>
<path d="M11.6343 8.86816C12.9849 7.69258 15.1384 7.03989 17.913 6.8852C20.6871 6.73053 24.0601 7.0756 27.8131 7.87944C35.3177 9.48682 44.3055 12.9208 52.9917 17.8036C61.6778 22.6863 68.4062 28.0869 72.2651 32.8673C74.195 35.2579 75.4025 37.4878 75.7835 39.416C76.1646 41.3446 75.7167 42.956 74.366 44.1316C73.0153 45.3072 70.8619 45.9599 68.0873 46.1146C65.3132 46.2692 61.9401 45.9242 58.1872 45.1203C50.6826 43.5129 41.6948 40.0789 33.0086 35.1962C24.3224 30.3134 17.5941 24.9129 13.7351 20.1325C11.8053 17.7418 10.5977 15.512 10.2167 13.5837C9.8357 11.6552 10.2836 10.0437 11.6343 8.86816Z" stroke="#35475B" stroke-opacity="0.4" stroke-width="0.3"/>
<path d="M7.18525 14.9832C8.12075 13.5997 9.99332 12.5731 12.6316 11.9182C15.2676 11.2638 18.6384 10.9885 22.5192 11.0922C30.279 11.2994 40.04 13.0204 49.9584 16.2098C59.8768 19.3992 68.0628 23.4494 73.2809 27.4154C75.8905 29.3989 77.7515 31.3566 78.7189 33.1697C79.6872 34.9844 79.7505 36.6335 78.815 38.017C77.8795 39.4004 76.0069 40.427 73.3686 41.082C70.7327 41.7364 67.3618 42.0116 63.481 41.908C55.7212 41.7008 45.9602 39.9798 36.0419 36.7904C26.1235 33.6009 17.9375 29.5508 12.7194 25.5847C10.1097 23.6012 8.24877 21.6436 7.28134 19.8305C6.31304 18.0158 6.24974 16.3667 7.18525 14.9832Z" stroke="#35475B" stroke-opacity="0.4" stroke-width="0.3"/>
<path d="M13.832 17.1C13.832 17.118 13.841 17.253 13.859 17.505L11.753 17.694L16.235 35.298L21.257 17.1H21.662L21.581 17.316L21.689 17.1L26.441 35.352L31.193 18.045C31.193 17.865 31.112 17.766 30.95 17.748L28.412 17.532L28.385 17.127L33.677 17.1C33.677 17.118 33.686 17.253 33.704 17.505L31.949 17.667L26.603 36H24.956L20.879 19.881L16.424 36H14.75L10.106 17.883C10.052 17.757 9.962 17.685 9.836 17.667L8.432 17.532L8.405 17.127L13.832 17.1ZM51.0074 17.1C51.0074 17.118 51.0164 17.253 51.0344 17.505L49.4954 17.64L43.7174 29.628V35.487L45.6884 35.595C45.6884 35.613 45.6794 35.748 45.6614 36L40.2614 36.027C40.2614 35.865 40.2704 35.739 40.2884 35.649L41.6924 35.46C41.8724 35.442 41.9804 35.325 42.0164 35.109V29.628L35.9414 17.775C35.8694 17.721 35.7974 17.676 35.7254 17.64L34.5914 17.532C34.5734 17.424 34.5644 17.289 34.5644 17.127L40.0184 17.1C40.0184 17.118 40.0274 17.253 40.0454 17.505L37.8314 17.694L43.4204 29.169L48.4694 18.099C48.4694 17.883 48.3884 17.766 48.2264 17.748L45.7694 17.532C45.7514 17.424 45.7424 17.289 45.7424 17.127L51.0074 17.1ZM68.8719 17.1C68.8719 17.118 68.8809 17.253 68.8989 17.505L67.1979 17.667L61.2579 36H59.4759L53.3199 17.802C53.2659 17.73 53.1939 17.685 53.1039 17.667L51.6999 17.532C51.6819 17.424 51.6729 17.289 51.6729 17.127L57.0729 17.1C57.0729 17.118 57.0819 17.253 57.0999 17.505L55.1019 17.694L61.0689 35.487L66.3069 18.342L66.3339 18.099C66.3339 17.883 66.2529 17.766 66.0909 17.748L63.6339 17.532C63.6159 17.424 63.6069 17.289 63.6069 17.127L68.8719 17.1ZM70.4164 36.027L70.4434 35.649L71.8474 35.46C72.0274 35.442 72.1354 35.325 72.1714 35.109H72.1984V18.045H72.1714C72.1354 17.811 72.0274 17.685 71.8474 17.667L70.4434 17.532L70.4164 17.127L75.8434 17.1C75.8434 17.118 75.8524 17.253 75.8704 17.505L74.0344 17.667V35.487L75.8704 35.595C75.8704 35.613 75.8614 35.748 75.8434 36L70.4164 36.027Z" fill="#37495E"/>
</svg>
