<svg width="928" height="482" viewBox="0 0 928 482" fill="none" xmlns="http://www.w3.org/2000/svg">
<path d="M803.542 80.3874C818.425 91.3189 823.248 106.223 819.095 123.882C814.942 141.538 801.823 161.898 780.94 183.672C739.176 227.218 666.426 276.356 572.578 320.75C478.73 365.144 381.594 396.369 300.427 410.974C259.841 418.277 223.28 421.419 193.137 419.986C162.99 418.552 139.349 412.55 124.466 401.618C109.583 390.687 104.76 375.782 108.914 358.124C113.067 340.467 126.186 320.108 147.069 298.333C188.833 254.787 261.583 205.649 355.431 161.256C449.278 116.862 546.415 85.6362 627.582 71.0313C668.168 63.7283 704.729 60.5869 734.872 62.02C765.018 63.4533 788.659 69.4559 803.542 80.3874Z" stroke="#8EA8C6" stroke-opacity="0.4"/>
<path d="M851.524 135.976C861.866 148.866 861.077 164.123 850.56 180.734C840.049 197.336 819.869 215.21 791.657 233.282C735.238 269.422 646.789 306.296 539.677 335.325C432.565 364.354 327.109 380.031 243.21 381.919C201.256 382.864 164.726 380.359 136.088 374.367C107.432 368.372 86.8151 358.916 76.4737 346.027C66.1322 333.137 66.9216 317.88 77.4386 301.269C87.9492 284.667 108.13 266.793 136.341 248.721C192.76 212.581 281.209 175.707 388.321 146.678C495.433 117.649 600.889 101.972 684.788 100.084C726.742 99.1395 763.273 101.644 791.91 107.636C820.566 113.631 841.183 123.087 851.524 135.976Z" stroke="#8EA8C6" stroke-opacity="0.4"/>
<path d="M124.583 80.1968C139.474 69.2734 163.12 63.2839 193.267 61.8673C223.411 60.4509 259.97 63.6126 300.55 70.938C381.706 85.5879 478.82 116.867 572.634 161.313C666.449 205.759 739.162 254.937 780.894 298.506C801.761 320.292 814.865 340.659 819.005 358.318C823.145 375.978 818.311 390.88 803.419 401.803C788.528 412.727 764.883 418.716 734.735 420.133C704.591 421.549 668.032 418.387 627.452 411.062C546.296 396.412 449.182 365.133 355.368 320.687C261.553 276.241 188.84 227.063 147.109 183.494C126.242 161.708 113.137 141.341 108.998 123.682C104.857 106.022 109.692 91.1201 124.583 80.1968Z" stroke="#8EA8C6" stroke-opacity="0.4"/>
<path d="M76.4752 135.977C86.8167 123.087 107.434 113.632 136.089 107.636C164.727 101.644 201.258 99.1398 243.211 100.084C327.111 101.972 432.567 117.65 539.679 146.679C646.791 175.707 735.24 212.581 791.658 248.722C819.87 266.793 840.051 284.667 850.561 301.269C861.078 317.881 861.868 333.138 851.526 346.027C841.185 358.916 820.568 368.372 791.912 374.368C763.274 380.359 726.743 382.864 684.79 381.92C600.89 380.031 495.434 364.354 388.322 335.325C281.211 306.296 192.761 269.422 136.343 233.282C108.131 215.211 87.9507 197.336 77.4402 180.735C66.9231 164.123 66.1337 148.866 76.4752 135.977Z" stroke="#8EA8C6" stroke-opacity="0.4"/>
</svg>
