<svg width="543" height="208" viewBox="0 0 543 208" fill="none" xmlns="http://www.w3.org/2000/svg">
<path d="M469.969 34.7625C478.587 39.4307 481.413 45.8137 478.989 53.4161C476.565 61.0157 468.904 69.7881 456.693 79.1784C432.273 97.9567 389.726 119.152 334.829 138.304C279.931 157.456 223.118 170.924 175.659 177.223C151.927 180.372 130.567 181.724 112.976 181.107C95.3774 180.49 81.6546 177.908 73.0369 173.24C64.4191 168.572 61.5923 162.189 64.0169 154.586C66.4406 146.987 74.1014 138.214 86.3128 128.824C110.732 110.046 153.28 88.85 208.177 69.698C263.074 50.546 319.888 37.0779 367.346 30.7799C391.079 27.6305 412.438 26.2786 430.03 26.8954C447.628 27.5125 461.351 30.0943 469.969 34.7625Z" stroke="#8EA8C6" stroke-opacity="0.4"/>
<path d="M498.044 58.7201C503.98 64.1769 503.582 70.6947 497.43 77.8609C491.293 85.0102 479.5 92.7156 462.999 100.511C430.001 116.1 378.261 132.009 315.596 144.534C252.931 157.06 191.241 163.822 142.17 164.637C117.631 165.044 96.2797 163.963 79.5578 161.383C62.7961 158.797 50.8913 154.738 44.9549 149.281C39.0185 143.824 39.4174 137.307 45.5692 130.14C51.7064 122.991 63.4985 115.286 80.0003 107.49C112.998 91.9009 164.738 75.992 227.403 63.4669C290.068 50.9418 351.758 44.1789 400.829 43.3644C425.368 42.9571 446.719 44.0381 463.441 46.6184C480.203 49.2048 492.108 53.2633 498.044 58.7201Z" stroke="#8EA8C6" stroke-opacity="0.4"/>
<path d="M73.1047 34.6803C81.7273 30.0155 95.4528 27.4393 113.052 26.8295C130.644 26.2198 152.002 27.5804 175.731 30.7395C223.184 37.0569 279.983 50.5481 334.861 69.7226C389.739 88.897 432.265 110.11 456.666 128.898C468.868 138.294 476.52 147.069 478.936 154.67C481.352 162.273 478.519 168.655 469.897 173.32C461.274 177.984 447.549 180.561 429.95 181.171C412.357 181.78 390.999 180.42 367.27 177.26C319.818 170.943 263.018 157.452 208.14 138.277C153.262 119.103 110.736 97.8899 86.3356 79.1017C74.1337 69.7064 66.4818 60.9309 64.0658 53.3303C61.6489 45.7269 64.4821 39.345 73.1047 34.6803Z" stroke="#8EA8C6" stroke-opacity="0.4"/>
<path d="M44.9559 58.7202C50.8924 53.2634 62.7971 49.2049 79.5589 46.6184C96.2808 44.0382 117.632 42.9571 142.171 43.3645C191.242 44.1789 252.932 50.9419 315.597 63.467C378.262 75.9921 430.002 91.901 463 107.49C479.502 115.286 491.294 122.991 497.431 130.141C503.583 137.307 503.982 143.825 498.045 149.281C492.109 154.738 480.204 158.797 463.442 161.383C446.72 163.963 425.369 165.044 400.83 164.637C351.759 163.823 290.069 157.06 227.404 144.535C164.739 132.009 112.999 116.101 80.0013 100.512C63.4995 92.7157 51.7075 85.0102 45.5702 77.861C39.4184 70.6948 39.0195 64.177 44.9559 58.7202Z" stroke="#8EA8C6" stroke-opacity="0.4"/>
</svg>
