<svg width="383" height="524" viewBox="0 0 383 524" fill="none" xmlns="http://www.w3.org/2000/svg">
<path d="M320.805 393.096C320.109 393.215 319.436 393.309 318.785 393.377C318.146 393.473 317.503 393.522 316.858 393.523L316.375 392.311L327.352 387.886L327.835 389.098C327.333 389.624 326.832 390.068 326.331 390.432C325.83 390.796 325.324 391.145 324.812 391.481L334.683 416.273C335.462 416.121 336.163 416.017 336.786 415.959C337.42 415.93 337.998 415.923 338.521 415.939L339.004 417.151L335.331 418.632C334.218 419.081 333.03 419.624 331.767 420.263C330.476 420.913 329.204 421.49 327.952 421.995C326.588 422.544 325.261 422.902 323.971 423.066C322.652 423.242 321.428 423.169 320.3 422.848C319.171 422.526 318.164 421.946 317.281 421.105C316.369 420.276 315.625 419.136 315.048 417.687C314.238 415.652 314.109 413.747 314.662 411.972C315.186 410.208 316.25 408.663 317.854 407.338C315.903 405.925 313.901 404.548 311.85 403.208C309.799 401.867 307.697 400.563 305.546 399.296L302.809 398.992L302.393 397.947L307.443 395.911L309.496 396.442C310.663 397.104 311.75 397.765 312.756 398.427C313.773 399.117 314.749 399.823 315.683 400.547C316.628 401.298 317.545 402.06 318.434 402.834C319.306 403.647 320.215 404.51 321.16 405.423L325.083 403.841L320.805 393.096ZM328.004 419.451C328.672 419.182 329.223 418.943 329.657 418.736C330.063 418.54 330.431 418.327 330.759 418.098L325.782 405.597L322.777 406.808C320.857 407.582 319.585 408.807 318.96 410.482C318.308 412.168 318.381 414.015 319.18 416.021C320.001 418.084 321.204 419.362 322.789 419.855C324.374 420.348 326.112 420.213 328.004 419.451Z" fill="#7290B3"/>
<path d="M285.474 432.835C285.306 431.646 285.165 430.437 285.051 429.209C284.912 428.015 284.816 426.798 284.761 425.559L285.913 425.357L288.546 429.921L298.208 428.228L296.245 416.466L289.02 417.732L287.84 421.319L286.731 421.513C286.065 418.615 285.566 415.626 285.235 412.547L286.343 412.353L288.635 415.424L295.859 414.158L293.792 401.774L283.597 403.56L282.315 409.267L281.207 409.461C280.792 408.255 280.435 407.023 280.133 405.766C279.832 404.509 279.603 403.225 279.444 401.912L301.297 398.084L301.512 399.371C300.556 400.026 299.404 400.593 298.055 401.073L302.449 427.394C303.06 427.409 303.69 427.451 304.34 427.519C304.995 427.618 305.638 427.734 306.269 427.867L306.484 429.154L285.474 432.835Z" fill="#7290B3"/>
<path d="M275.334 433.772L263.005 433.605L263.036 432.3C263.762 432.04 264.488 431.81 265.213 431.61C265.937 431.439 266.66 431.314 267.382 431.234L268.016 404.512L257.667 404.371L254.841 411.578L253.671 411.562C253.596 410.931 253.538 410.196 253.498 409.355C253.427 408.544 253.388 407.688 253.379 406.788C253.34 405.918 253.33 405.063 253.35 404.223C253.37 403.383 253.402 402.633 253.448 401.974L276.081 402.281L276.05 403.585C275.322 403.906 274.657 404.137 274.053 404.278C273.45 404.42 272.877 404.532 272.335 404.615L271.702 431.293C272.389 431.422 273.045 431.581 273.671 431.769C274.296 431.988 274.86 432.22 275.365 432.467L275.334 433.772Z" fill="#7290B3"/>
<path d="M224.224 428.454C224.503 427.286 224.814 426.109 225.157 424.924C225.465 423.762 225.82 422.594 226.222 421.42L227.369 421.651L228.151 426.856L237.769 428.787L240.244 417.121L233.052 415.678L230.641 418.59L229.538 418.368C229.978 415.428 230.606 412.464 231.424 409.476L232.527 409.698L233.538 413.389L240.73 414.832L243.335 402.551L233.187 400.513L229.905 405.362L228.802 405.141C228.857 403.867 228.975 402.59 229.154 401.31C229.334 400.031 229.59 398.751 229.923 397.472L251.674 401.838L251.403 403.115C250.274 403.378 248.993 403.488 247.561 403.445L242.023 429.549C242.587 429.785 243.159 430.052 243.739 430.352C244.313 430.682 244.869 431.023 245.408 431.376L245.137 432.653L224.224 428.454Z" fill="#7290B3"/>
<path d="M193.471 414.6C194.077 415.014 194.636 415.424 195.148 415.831C195.647 416.265 196.133 416.694 196.605 417.117L196.093 418.317L186.74 414.44L187.252 413.24C188.244 413.131 189.388 413.2 190.686 413.446L211.483 390.599L213.981 391.05L212.967 422.682C213.463 423.049 213.939 423.425 214.395 423.809C214.839 424.22 215.269 424.626 215.686 425.026L215.174 426.227L204.158 421.66L204.669 420.46C205.223 420.462 205.832 420.487 206.496 420.535C207.149 420.611 207.823 420.712 208.519 420.838L209.477 398.974L210.016 395.301L209.933 395.266L207.654 398.316L193.471 414.6Z" fill="#7290B3"/>
<path d="M192.3 380.611L200.601 386.17L199.867 387.248C198.699 387.044 197.599 386.741 196.567 386.338L170.417 404.517L169.333 403.791L176.562 372.944C176.131 372.511 175.721 372.074 175.332 371.633C174.918 371.175 174.583 370.68 174.328 370.148L175.063 369.07L184.635 375.479L183.9 376.558C183.267 376.422 182.638 376.254 182.013 376.052C181.388 375.85 180.793 375.632 180.226 375.397L178.135 383.907L187.071 389.891L194.174 384.736C193.228 383.886 192.359 382.871 191.566 381.69L192.3 380.611ZM185.006 391.324L177.453 386.267L175.038 396.13L173.571 399.805L173.645 399.855L176.809 397.208L185.006 391.324Z" fill="#7290B3"/>
<path d="M138.494 376.534L131.692 369.591L132.628 368.681C134.112 368.996 135.403 369.456 136.501 370.063L157.252 349.897L159.047 351.729L152.697 380.678L151.408 384.377L151.503 384.474L153.736 381.738L169.065 366.842C168.441 365.733 168.009 364.542 167.77 363.269L168.706 362.36L175.508 369.303L174.572 370.212C173.958 370.056 173.354 369.848 172.762 369.586C172.128 369.325 171.494 369.02 170.86 368.674L152.369 386.644C152.617 387.24 152.854 387.846 153.08 388.463C153.285 389.058 153.469 389.632 153.633 390.185L152.729 391.063L147.407 385.63L152.816 360.608L154.142 356.433L154.016 356.304L151.399 359.162L138.296 371.895C138.544 372.533 138.77 373.171 138.974 373.809C139.158 374.425 139.31 375.03 139.43 375.624L138.494 376.534Z" fill="#7290B3"/>
<path d="M133.445 330.501L132.809 329.519C133.433 328.937 134.253 328.244 135.27 327.442C136.263 326.656 137.279 325.962 138.318 325.36C138.865 325.542 139.41 325.832 139.954 326.231C140.473 326.645 140.991 327.114 141.508 327.637C142.009 328.134 142.489 328.681 142.947 329.278C143.389 329.85 143.789 330.413 144.148 330.967C145.518 333.082 146.476 335.142 147.024 337.146C147.546 339.167 147.629 341.115 147.271 342.991C146.897 344.842 146.058 346.637 144.754 348.376C143.408 350.106 141.552 351.737 139.185 353.271C136.717 354.869 134.408 355.883 132.255 356.312C130.078 356.758 128.072 356.753 126.24 356.296C124.382 355.855 122.703 355.03 121.205 353.82C119.707 352.61 118.411 351.162 117.319 349.475C116.242 347.813 115.45 346.342 114.943 345.062C114.411 343.799 114.081 342.6 113.955 341.467C114.358 341.206 114.844 340.908 115.414 340.575C115.959 340.257 116.55 339.928 117.187 339.587C117.824 339.246 118.457 338.925 119.085 338.626C119.713 338.326 120.29 338.059 120.817 337.825L121.454 338.807L117.287 344.294C117.316 344.669 117.517 345.2 117.89 345.887C118.248 346.55 118.63 347.195 119.038 347.825C119.853 349.084 120.867 350.125 122.079 350.948C123.25 351.762 124.604 352.28 126.14 352.5C127.635 352.711 129.288 352.587 131.1 352.128C132.886 351.685 134.774 350.82 136.763 349.531C138.551 348.373 140.028 347.094 141.195 345.695C142.336 344.312 143.146 342.858 143.624 341.333C144.076 339.824 144.18 338.274 143.935 336.681C143.664 335.105 143.024 333.536 142.013 331.975C141.474 331.144 140.963 330.492 140.478 330.02C139.994 329.547 139.594 329.288 139.278 329.242L133.445 330.501Z" fill="#7290B3"/>
<path d="M100.519 314.047C101.636 313.607 102.779 313.189 103.946 312.793C105.074 312.381 106.234 312.004 107.425 311.664L107.876 312.743L104.029 316.373L107.815 325.423L118.798 320.779L115.967 314.012L112.223 313.69L111.789 312.652C114.455 311.329 117.246 310.149 120.161 309.111L120.595 310.149L118.123 313.1L120.953 319.867L132.517 314.977L128.523 305.429L122.698 305.498L122.264 304.46C123.344 303.775 124.46 303.14 125.613 302.555C126.767 301.969 127.963 301.447 129.202 300.989L137.763 321.455L136.561 321.964C135.713 321.182 134.907 320.187 134.142 318.98L109.565 329.374C109.686 329.974 109.785 330.6 109.862 331.251C109.912 331.914 109.942 332.569 109.952 333.216L108.75 333.724L100.519 314.047Z" fill="#7290B3"/>
<path d="M121.957 262.328L123.117 273.789L121.82 273.932C121.165 272.827 120.687 271.673 120.384 270.469L93.8596 273.392C93.8007 274.002 93.712 274.615 93.5935 275.232C93.4452 275.852 93.282 276.473 93.1038 277.096L91.8067 277.239L90.6469 265.778L91.9441 265.635C92.237 266.146 92.5195 266.703 92.7917 267.307C93.034 267.914 93.245 268.51 93.4247 269.093L119.949 266.171C120.005 265.531 120.091 264.888 120.206 264.241C120.322 263.595 120.473 263.005 120.66 262.471L121.957 262.328Z" fill="#7290B3"/>
<path d="M91.098 237.345L91.7198 227.645L93.023 227.715C93.7812 229.017 94.3016 230.277 94.5843 231.494L123.478 233.043L123.314 235.602L97.5093 250.577L93.8921 252.14L93.8835 252.275L97.4143 252.059L118.759 253.203C119.167 251.993 119.765 250.868 120.553 249.829L121.856 249.899L121.234 259.599L119.931 259.529C119.636 258.973 119.388 258.389 119.187 257.777C118.958 257.134 118.76 256.462 118.595 255.763L92.8466 254.382C92.5685 254.968 92.2755 255.553 91.9675 256.138C91.6614 256.692 91.3573 257.216 91.055 257.711L89.7968 257.644L90.2834 250.054L112.535 237.052L116.531 235.194L116.543 235.014L112.664 235.032L94.4202 234.053C94.1103 234.668 93.7864 235.266 93.4484 235.849C93.1124 236.402 92.7633 236.924 92.4012 237.415L91.098 237.345Z" fill="#7290B3"/>
<path d="M99.1555 199.489L101.927 190.172L103.182 190.531C103.63 191.969 103.856 193.313 103.86 194.562L131.681 202.514L130.95 204.972L102.452 213.815L98.5765 214.533L98.538 214.662L102.028 215.239L122.58 221.112C123.248 220.024 124.083 219.061 125.083 218.224L126.338 218.583L123.566 227.899L122.311 227.541C122.148 226.932 122.036 226.308 121.977 225.667C121.897 224.989 121.854 224.29 121.849 223.571L97.0567 216.485C96.6549 216.994 96.2386 217.499 95.8079 218C95.3858 218.472 94.9722 218.916 94.5672 219.33L93.3557 218.984L95.5242 211.695L120.118 203.982L124.429 203.062L124.481 202.889L120.696 202.041L103.129 197.021C102.69 197.55 102.24 198.061 101.781 198.554C101.33 199.018 100.873 199.449 100.41 199.847L99.1555 199.489Z" fill="#7290B3"/>
<path d="M119.866 188.589C117.836 187.424 116.122 186.077 114.724 184.548C113.314 182.977 112.288 181.316 111.646 179.564C110.993 177.77 110.762 175.909 110.954 173.978C111.147 172.047 111.811 170.111 112.949 168.17C114.086 166.229 115.453 164.696 117.05 163.572C118.647 162.448 120.386 161.734 122.268 161.431C124.138 161.086 126.104 161.143 128.166 161.6C130.217 162.016 132.257 162.807 134.286 163.972C136.315 165.137 138.035 166.505 139.444 168.075C140.843 169.604 141.869 171.266 142.522 173.059C143.164 174.811 143.389 176.653 143.197 178.583C143.005 180.514 142.34 182.45 141.203 184.391C140.066 186.333 138.699 187.865 137.102 188.989C135.505 190.113 133.771 190.848 131.9 191.192C130.019 191.496 128.053 191.439 126.002 191.023C123.941 190.566 121.895 189.754 119.866 188.589ZM122.299 184.435C123.965 185.391 125.637 186.126 127.317 186.641C128.987 187.115 130.572 187.316 132.074 187.245C133.576 187.173 134.964 186.793 136.236 186.105C137.482 185.403 138.529 184.326 139.379 182.877C140.152 181.557 140.514 180.225 140.466 178.883C140.392 177.526 139.99 176.223 139.262 174.975C138.548 173.7 137.554 172.49 136.279 171.342C134.993 170.155 133.517 169.083 131.852 168.127C130.187 167.171 128.528 166.443 126.873 165.943C125.193 165.428 123.602 165.206 122.1 165.278C120.598 165.349 119.224 165.737 117.978 166.439C116.706 167.127 115.645 168.196 114.796 169.646C113.962 171.069 113.575 172.473 113.634 173.856C113.682 175.198 114.07 176.493 114.799 177.742C115.528 178.991 116.55 180.183 117.867 181.319C119.157 182.44 120.634 183.479 122.299 184.435Z" fill="#7290B3"/>
<path d="M144.992 132.873C144.382 133.286 143.794 133.656 143.225 133.984C142.635 134.291 142.056 134.587 141.487 134.872L140.545 133.968L147.592 126.698L148.534 127.602C148.274 128.559 147.793 129.595 147.09 130.708L160.979 158.145L159.646 160.297L130.302 148.027C129.777 148.354 129.25 148.659 128.724 148.944C128.176 149.208 127.638 149.461 127.111 149.703L126.169 148.799L134.469 140.237L135.41 141.141C135.207 141.652 134.962 142.207 134.675 142.805C134.366 143.382 134.026 143.97 133.654 144.569L153.842 153.288L157.097 155.103L157.159 155.039L155.124 151.837L144.992 132.873Z" fill="#7290B3"/>
<path d="M177.798 144.113L169.387 149.503L168.683 148.404C169.334 147.417 170.049 146.531 170.829 145.746L164.426 114.628L165.525 113.924L191.099 132.757C191.669 132.534 192.234 132.332 192.795 132.151C193.381 131.954 193.97 131.844 194.561 131.821L195.264 132.92L185.565 139.136L184.861 138.037C185.237 137.511 185.642 137.002 186.075 136.511C186.509 136.019 186.946 135.561 187.386 135.136L180.37 129.852L171.314 135.655L173.254 144.193C174.412 143.664 175.692 143.272 177.094 143.014L177.798 144.113ZM170.811 133.198L178.464 128.294L170.327 122.177L167.521 119.379L167.445 119.428L168.633 123.37L170.811 133.198Z" fill="#7290B3"/>
<path d="M212.566 127.006L200.693 131.355L200.25 130.127C200.788 129.674 201.337 129.25 201.895 128.854C202.482 128.447 203.121 128.053 203.813 127.672L194.729 102.485L188.264 104.853L188.207 111.727L187.151 112.113C186.863 111.58 186.563 110.971 186.253 110.286C185.932 109.573 185.611 108.86 185.29 108.147C184.987 107.395 184.694 106.672 184.411 105.976C184.118 105.253 183.87 104.609 183.667 104.045L208.217 95.0533C208.42 95.6177 208.635 96.2578 208.862 96.9736C209.088 97.6894 209.31 98.4386 209.529 99.2212C209.765 99.9653 209.988 100.714 210.196 101.469C210.422 102.185 210.6 102.854 210.729 103.478L209.631 103.88L205.25 98.6318L198.785 101L207.87 126.186C208.653 126.059 209.38 125.953 210.051 125.867C210.749 125.771 211.44 125.741 212.124 125.778L212.566 127.006Z" fill="#7290B3"/>
<path d="M231.93 122.595L220.615 124.759L220.38 123.475C221.432 122.724 222.546 122.145 223.721 121.737L218.912 95.4886C218.301 95.4833 217.685 95.4485 217.063 95.3842C216.436 95.2904 215.806 95.1818 215.173 95.0584L214.938 93.7748L226.253 91.6104L226.488 92.8941C226.001 93.2316 225.467 93.5628 224.886 93.8877C224.3 94.1832 223.723 94.4463 223.155 94.677L227.965 120.925C228.605 120.925 229.251 120.954 229.902 121.013C230.553 121.071 231.151 121.171 231.695 121.311L231.93 122.595Z" fill="#7290B3"/>
<path d="M235.884 105.575C235.895 103.235 236.22 101.074 236.86 99.0904C237.53 97.077 238.468 95.3472 239.675 93.9009C240.912 92.4245 242.417 91.2767 244.191 90.4575C245.965 89.6382 247.977 89.2227 250.227 89.211C252.477 89.1992 254.485 89.5937 256.251 90.3945C258.017 91.1952 259.497 92.3275 260.689 93.7912C261.913 95.2247 262.834 96.9449 263.455 98.9515C264.105 100.928 264.425 103.086 264.414 105.426C264.402 107.766 264.062 109.943 263.392 111.956C262.753 113.94 261.814 115.669 260.577 117.146C259.371 118.592 257.88 119.725 256.106 120.544C254.332 121.363 252.321 121.779 250.071 121.791C247.821 121.802 245.813 121.408 244.046 120.607C242.28 119.806 240.786 118.689 239.563 117.256C238.37 115.792 237.448 114.072 236.798 112.095C236.177 110.089 235.873 107.915 235.884 105.575ZM240.699 105.55C240.69 107.47 240.876 109.284 241.258 110.992C241.67 112.67 242.278 114.137 243.082 115.392C243.885 116.648 244.901 117.648 246.127 118.391C247.354 119.105 248.807 119.457 250.487 119.449C252.017 119.441 253.353 119.074 254.497 118.348C255.64 117.592 256.575 116.582 257.301 115.318C258.057 114.054 258.619 112.581 258.987 110.899C259.386 109.187 259.589 107.371 259.599 105.451C259.608 103.531 259.421 101.733 259.039 100.055C258.658 98.3466 258.065 96.8648 257.261 95.609C256.457 94.3533 255.442 93.3686 254.215 92.655C252.989 91.9115 251.536 91.5441 249.856 91.5528C248.206 91.5615 246.794 91.9438 245.62 92.6999C244.477 93.4259 243.542 94.4207 242.816 95.6845C242.09 96.9482 241.558 98.4359 241.22 100.148C240.882 101.829 240.708 103.63 240.699 105.55Z" fill="#7290B3"/>
<path d="M294.89 95.3857L304.352 97.6095L304.039 98.8765C302.612 99.4039 301.271 99.705 300.016 99.78L293.09 127.874L290.593 127.287L280.627 99.4755L279.758 95.666L279.627 95.6351L279.181 99.1357L274.064 119.889C275.183 120.491 276.181 121.265 277.06 122.211L276.748 123.478L267.286 121.255L267.598 119.987C268.203 119.791 268.826 119.644 269.468 119.549C270.146 119.431 270.845 119.348 271.567 119.302L277.74 94.2671C277.213 93.8968 276.69 93.512 276.171 93.1125C275.68 92.72 275.219 92.3343 274.787 91.9554L275.089 90.7321L282.492 92.472L291.175 116.469L292.263 120.7L292.439 120.741L293.146 116.932L297.519 99.1931C296.971 98.7868 296.44 98.3694 295.928 97.9409C295.445 97.5192 294.995 97.0898 294.577 96.6527L294.89 95.3857Z" fill="#7290B3"/>
<path d="M329.788 126.068C331.152 124.167 332.669 122.594 334.338 121.349C336.049 120.097 337.814 119.232 339.634 118.755C341.496 118.271 343.385 118.21 345.303 118.573C347.221 118.937 349.099 119.768 350.936 121.066C352.774 122.365 354.179 123.853 355.153 125.533C356.126 127.212 356.674 128.996 356.797 130.882C356.962 132.762 356.715 134.7 356.058 136.697C355.443 138.686 354.453 140.631 353.088 142.532C351.724 144.434 350.186 146.01 348.475 147.262C346.806 148.507 345.041 149.372 343.179 149.856C341.36 150.334 339.491 150.391 337.573 150.027C335.655 149.664 333.778 148.833 331.94 147.535C330.102 146.236 328.697 144.747 327.724 143.068C326.751 141.388 326.181 139.609 326.017 137.729C325.894 135.842 326.14 133.904 326.755 131.915C327.413 129.918 328.424 127.97 329.788 126.068ZM333.72 128.847C332.601 130.407 331.702 131.994 331.023 133.608C330.387 135.216 330.032 136.765 329.959 138.256C329.886 139.747 330.133 141.152 330.7 142.471C331.285 143.766 332.263 144.898 333.635 145.867C334.885 146.75 336.185 147.228 337.536 147.301C338.904 147.35 340.25 147.07 341.572 146.462C342.919 145.871 344.23 144.997 345.503 143.84C346.819 142.676 348.036 141.314 349.156 139.754C350.275 138.194 351.166 136.619 351.827 135.029C352.505 133.415 352.881 131.862 352.954 130.371C353.027 128.88 352.772 127.487 352.187 126.192C351.62 124.873 350.65 123.729 349.278 122.759C347.93 121.807 346.56 121.298 345.167 121.232C343.817 121.159 342.48 121.427 341.157 122.035C339.834 122.643 338.54 123.547 337.273 124.746C336.024 125.92 334.84 127.287 333.72 128.847Z" fill="#7290B3"/>
<path d="M353.929 162.074C354.289 162.681 354.618 163.276 354.915 163.859C355.234 164.422 355.51 165.005 355.743 165.607L354.785 166.492L346.72 157.831L347.678 156.945C348.348 157.224 348.942 157.533 349.461 157.87C349.98 158.207 350.488 158.555 350.985 158.912L370.58 140.797C370.158 140.125 369.809 139.508 369.533 138.946C369.278 138.365 369.064 137.827 368.891 137.333L369.849 136.447L372.548 139.345C373.366 140.224 374.299 141.138 375.348 142.088C376.417 143.061 377.412 144.041 378.332 145.029C379.334 146.105 380.143 147.216 380.759 148.362C381.396 149.53 381.767 150.699 381.872 151.868C381.977 153.038 381.796 154.186 381.328 155.313C380.881 156.461 380.085 157.565 378.939 158.624C377.331 160.111 375.6 160.915 373.745 161.036C371.911 161.179 370.088 160.74 368.276 159.719C367.657 162.048 367.09 164.41 366.575 166.807C366.06 169.203 365.597 171.633 365.186 174.097L365.884 176.762L365.058 177.525L361.347 173.54L361.107 171.433C361.306 170.106 361.533 168.854 361.79 167.677C362.069 166.479 362.378 165.315 362.718 164.183C363.08 163.031 363.463 161.901 363.866 160.793C364.311 159.687 364.791 158.529 365.304 157.319L362.421 154.223L353.929 162.074ZM375.939 145.893C375.449 145.366 375.029 144.937 374.68 144.606C374.351 144.297 374.021 144.031 373.689 143.806L363.809 152.94L366.017 155.311C367.428 156.826 369.026 157.575 370.813 157.557C372.621 157.561 374.318 156.83 375.904 155.364C377.534 153.857 378.295 152.275 378.187 150.618C378.079 148.961 377.329 147.386 375.939 145.893Z" fill="#7290B3"/>
<path d="M372.504 188.931L365.927 179.473L366.999 178.728C368.11 179.381 369.091 180.161 369.941 181.068L391.858 165.845C391.614 165.284 391.395 164.706 391.2 164.111C391.03 163.498 390.872 162.877 390.727 162.248L391.799 161.503L398.375 170.961L397.304 171.706C396.798 171.399 396.279 171.048 395.747 170.65C395.24 170.236 394.765 169.816 394.324 169.392L372.407 184.615C372.668 185.2 372.905 185.803 373.117 186.423C373.328 187.043 373.481 187.631 373.575 188.186L372.504 188.931Z" fill="#7290B3"/>
<path d="M388.027 213.509C387.48 213.145 386.886 212.686 386.245 212.133C385.645 211.593 385.031 210.994 384.405 210.333C383.818 209.687 383.266 209.006 382.747 208.293C382.214 207.619 381.782 206.946 381.45 206.273C380.389 204.121 379.716 202.043 379.432 200.041C379.174 198.026 379.338 196.119 379.924 194.321C380.536 192.51 381.59 190.815 383.086 189.236C384.595 187.683 386.613 186.28 389.139 185.027C391.772 183.72 394.202 182.983 396.428 182.816C398.666 182.677 400.675 182.952 402.454 183.644C404.273 184.348 405.836 185.381 407.143 186.743C408.489 188.117 409.58 189.652 410.416 191.348C411.291 193.123 411.907 194.677 412.262 196.008C412.657 197.352 412.851 198.595 412.845 199.737C412.442 199.937 411.939 200.17 411.334 200.437C410.73 200.703 410.092 200.969 409.42 201.236C408.749 201.502 408.071 201.755 407.386 201.994C406.728 202.22 406.137 202.413 405.614 202.572L405.096 201.522L409.866 196.543C409.882 196.167 409.744 195.616 409.453 194.89C409.162 194.163 408.85 193.464 408.519 192.791C407.856 191.446 406.97 190.294 405.863 189.337C404.782 188.366 403.492 187.683 401.993 187.288C400.534 186.907 398.88 186.841 397.029 187.089C395.205 187.325 393.231 187.969 391.108 189.022C389.2 189.969 387.607 191.078 386.327 192.35C385.06 193.648 384.102 195.028 383.451 196.49C382.84 197.965 382.544 199.468 382.563 200.999C382.595 202.557 382.969 204.063 383.686 205.516C383.951 206.054 384.263 206.552 384.623 207.01C384.982 207.468 385.335 207.879 385.682 208.243C386.056 208.593 386.389 208.863 386.683 209.052C386.99 209.268 387.224 209.403 387.385 209.457L395.527 205.417C395.236 204.691 395.025 203.958 394.895 203.219C394.778 202.507 394.675 201.788 394.585 201.062L395.754 200.482L400.628 210.371L399.459 210.951C399.138 210.775 398.805 210.539 398.458 210.242C398.111 209.946 397.711 209.508 397.258 208.929L388.027 213.509Z" fill="#7290B3"/>
<path d="M372.075 347.848L378.8 337.139L379.911 337.824C379.764 338.509 379.592 339.178 379.394 339.832C379.18 340.51 378.917 341.211 378.605 341.935L401.396 355.986L405.058 350.156L400.849 344.759L401.447 343.806C402.006 344.045 402.62 344.336 403.29 344.678C403.986 345.037 404.682 345.395 405.378 345.754C406.084 346.154 406.763 346.538 407.418 346.906C408.098 347.29 408.693 347.639 409.204 347.954L395.299 370.095C394.788 369.78 394.222 369.413 393.599 368.994C392.977 368.575 392.337 368.128 391.679 367.652C391.031 367.217 390.391 366.769 389.759 366.309C389.137 365.89 388.581 365.477 388.093 365.071L388.715 364.08L395.437 365.475L399.099 359.645L376.307 345.593C375.765 346.175 375.254 346.706 374.775 347.186C374.281 347.692 373.751 348.141 373.186 348.533L372.075 347.848Z" fill="#7290B3"/>
<path d="M378.069 388.91L371.15 395.991L370.213 395.083C370.6 393.872 371.127 392.795 371.795 391.855L366.488 374.879L358.567 367.21C357.642 367.942 356.586 368.507 355.401 368.905L354.463 367.997L362.452 359.822L363.389 360.73C363.022 361.878 362.421 363.008 361.586 364.12L369.475 371.758L387.111 376.18C387.679 375.77 388.238 375.413 388.786 375.109C389.335 374.848 389.895 374.597 390.466 374.356L391.404 375.264L383.07 383.793L382.132 382.885C382.317 382.438 382.534 381.938 382.781 381.384C383.05 380.851 383.372 380.264 383.745 379.624L369.083 375.7L373.744 389.859C374.334 389.47 374.914 389.113 375.484 388.787C376.054 388.504 376.603 388.243 377.132 388.003L378.069 388.91Z" fill="#7290B3"/>
</svg>
