<svg width="377" height="485" viewBox="0 0 377 485" fill="none" xmlns="http://www.w3.org/2000/svg">
<path d="M270.875 208.147C270.853 208.852 270.81 209.531 270.748 210.182C270.714 210.828 270.634 211.468 270.507 212.1L269.222 212.332L267.075 200.693L268.359 200.462C268.774 201.058 269.11 201.637 269.366 202.201C269.623 202.764 269.865 203.33 270.092 203.899L296.354 199.169C296.36 198.375 296.397 197.668 296.466 197.046C296.563 196.418 296.672 195.85 296.792 195.341L298.076 195.11L298.795 199.004C299.012 200.184 299.308 201.457 299.682 202.822C300.061 204.217 300.374 205.578 300.619 206.906C300.885 208.351 300.971 209.723 300.875 211.02C300.784 212.347 300.469 213.532 299.929 214.574C299.389 215.616 298.619 216.487 297.619 217.185C296.625 217.913 295.36 218.415 293.824 218.691C291.669 219.08 289.777 218.826 288.147 217.931C286.523 217.065 285.222 215.714 284.242 213.879C282.469 215.509 280.721 217.195 278.998 218.938C277.276 220.681 275.579 222.48 273.908 224.336L273.065 226.957L271.958 227.156L270.97 221.802L271.899 219.897C272.78 218.885 273.645 217.951 274.495 217.097C275.373 216.238 276.26 215.423 277.155 214.652C278.079 213.876 279.009 213.129 279.945 212.412C280.915 211.719 281.942 211.001 283.025 210.257L282.257 206.097L270.875 208.147ZM298.136 206.347C298.005 205.639 297.882 205.051 297.765 204.585C297.654 204.147 297.519 203.745 297.359 203.377L284.117 205.762L284.705 208.949C285.081 210.984 286.027 212.475 287.544 213.421C289.066 214.397 290.89 214.693 293.016 214.31C295.201 213.917 296.693 212.993 297.492 211.538C298.292 210.083 298.506 208.353 298.136 206.347Z" fill="#7290B3"/>
<path d="M302.772 250.692C301.573 250.62 300.361 250.517 299.134 250.384C297.936 250.281 296.725 250.133 295.5 249.94L295.532 248.77L300.529 247.101L300.797 237.295L288.879 236.874L288.679 244.206L291.959 246.078L291.928 247.202C288.955 247.277 285.927 247.171 282.844 246.882L282.875 245.757L286.34 244.123L286.54 236.791L273.993 236.348L273.711 246.694L279.047 249.089L279.017 250.213C277.752 250.379 276.473 250.484 275.182 250.528C273.89 250.573 272.586 250.542 271.268 250.435L271.873 228.258L273.177 228.304C273.628 229.371 273.955 230.613 274.156 232.031L300.824 232.973C300.961 232.377 301.127 231.768 301.325 231.145C301.552 230.522 301.793 229.915 302.049 229.324L303.354 229.37L302.772 250.692Z" fill="#7290B3"/>
<path d="M301.668 260.816L299.046 272.864L297.774 272.573C297.664 271.81 297.583 271.053 297.531 270.302C297.509 269.559 297.53 268.825 297.596 268.102L271.536 262.152L269.336 272.266L275.834 276.472L275.585 277.616C274.952 277.563 274.22 277.473 273.388 277.345C272.579 277.252 271.733 277.121 270.849 276.95C269.988 276.815 269.148 276.654 268.329 276.467C267.51 276.28 266.782 276.098 266.145 275.922L270.958 253.805L272.231 254.095C272.399 254.872 272.493 255.57 272.511 256.19C272.53 256.81 272.526 257.393 272.499 257.941L298.514 263.88C298.778 263.233 299.065 262.621 299.374 262.046C299.713 261.477 300.053 260.97 300.396 260.525L301.668 260.816Z" fill="#7290B3"/>
<path d="M286.267 309.838C285.178 309.333 284.087 308.793 282.994 308.22C281.917 307.687 280.843 307.106 279.773 306.478L280.227 305.4L285.484 305.672L289.294 296.632L278.356 291.881L275.508 298.64L277.88 301.584L277.443 302.621C274.649 301.603 271.87 300.396 269.106 298.999L269.543 297.963L273.361 297.708L276.21 290.949L264.694 285.947L260.675 295.485L264.771 299.668L264.334 300.704C263.097 300.396 261.87 300.026 260.651 299.595C259.433 299.164 258.23 298.658 257.043 298.077L265.659 277.633L266.856 278.153C266.888 279.312 266.741 280.589 266.413 281.984L290.889 292.615C291.232 292.11 291.609 291.603 292.018 291.094C292.456 290.597 292.901 290.12 293.354 289.663L294.551 290.183L286.267 309.838Z" fill="#7290B3"/>
<path d="M266.56 337.212C267.086 336.7 267.6 336.235 268.1 335.815C268.626 335.412 269.142 335.021 269.651 334.643L270.725 335.384L265.061 343.776L263.987 343.036C264.078 342.042 264.374 340.934 264.873 339.711L246.632 314.777L247.572 312.419L278.366 319.718C278.825 319.306 279.289 318.915 279.756 318.545C280.247 318.192 280.731 317.851 281.206 317.522L282.28 318.263L275.609 328.148L274.535 327.407C274.647 326.865 274.793 326.273 274.973 325.632C275.177 325.007 275.41 324.367 275.673 323.71L254.439 318.412L250.947 317.151L250.897 317.226L253.431 320.067L266.56 337.212Z" fill="#7290B3"/>
<path d="M233.021 331.583L240.122 324.556L241.033 325.491C240.6 326.595 240.083 327.612 239.483 328.544L252.083 357.793L251.155 358.711L222.369 345.476C221.859 345.812 221.349 346.127 220.839 346.42C220.308 346.735 219.756 346.964 219.184 347.108L218.274 346.173L226.463 338.071L227.373 339.006C227.114 339.599 226.824 340.182 226.501 340.754C226.179 341.326 225.847 341.866 225.504 342.374L233.426 346.121L241.071 338.557L237.436 330.569C236.415 331.326 235.246 331.976 233.931 332.517L233.021 331.583ZM242.064 340.866L235.602 347.259L244.786 351.592L248.095 353.763L248.159 353.7L246.195 350.072L242.064 340.866Z" fill="#7290B3"/>
<path d="M218.297 383.495L210.137 388.777L209.432 387.678C210.036 386.287 210.745 385.113 211.558 384.158L195.935 359.804L198.088 358.41L225.189 370.404L228.558 372.405L228.671 372.332L226.436 369.597L214.894 351.606C213.683 351.996 212.43 352.182 211.135 352.163L210.43 351.065L218.59 345.783L219.295 346.881C219.02 347.453 218.695 348.002 218.321 348.53C217.938 349.1 217.513 349.66 217.048 350.212L230.97 371.915C231.603 371.791 232.245 371.68 232.894 371.581C233.519 371.499 234.118 371.433 234.692 371.383L235.372 372.443L228.988 376.576L205.546 366.286L201.719 364.154L201.568 364.252L203.846 367.387L213.711 382.765C214.386 382.65 215.056 382.555 215.722 382.482C216.362 382.425 216.986 382.396 217.592 382.397L218.297 383.495Z" fill="#7290B3"/>
<path d="M172.182 379.266L171.093 379.693C170.646 378.966 170.131 378.024 169.548 376.867C168.976 375.738 168.498 374.604 168.115 373.465C168.403 372.966 168.796 372.489 169.294 372.036C169.804 371.61 170.367 371.196 170.982 370.793C171.57 370.401 172.201 370.041 172.878 369.711C173.526 369.392 174.157 369.112 174.772 368.871C177.117 367.95 179.327 367.421 181.4 367.284C183.485 367.175 185.411 367.483 187.178 368.207C188.917 368.943 190.508 370.123 191.952 371.748C193.379 373.412 194.607 375.556 195.638 378.181C196.713 380.917 197.246 383.383 197.237 385.578C197.24 387.801 196.835 389.764 196.022 391.469C195.219 393.202 194.076 394.682 192.592 395.909C191.108 397.136 189.43 398.117 187.559 398.851C185.716 399.575 184.117 400.057 182.761 400.299C181.417 400.569 180.177 400.653 179.041 400.551C178.866 400.104 178.671 399.568 178.458 398.943C178.256 398.345 178.051 397.701 177.843 397.009C177.636 396.316 177.448 395.633 177.28 394.958C177.111 394.283 176.965 393.663 176.84 393.1L177.93 392.672L182.476 397.849C182.849 397.896 183.41 397.805 184.158 397.576C184.878 397.358 185.587 397.112 186.285 396.838C187.681 396.29 188.904 395.504 189.952 394.48C190.983 393.495 191.76 392.272 192.282 390.81C192.787 389.387 192.995 387.742 192.907 385.876C192.829 384.037 192.357 382.014 191.491 379.808C190.713 377.826 189.754 376.123 188.615 374.701C187.488 373.307 186.224 372.223 184.825 371.451C183.437 370.707 181.938 370.296 180.329 370.219C178.73 370.169 177.065 370.484 175.334 371.164C174.412 371.526 173.672 371.897 173.112 372.278C172.553 372.658 172.219 372.999 172.111 373.299L172.182 379.266Z" fill="#7290B3"/>
<path d="M149.493 408.25C149.285 407.067 149.103 405.865 148.947 404.642C148.769 403.454 148.631 402.243 148.535 401.008L149.682 400.781L152.473 405.274L162.096 403.369L159.734 391.68L152.539 393.105L151.477 396.71L150.373 396.928C149.608 394.052 149.008 391.082 148.573 388.018L149.676 387.8L152.075 390.811L159.271 389.387L156.784 377.08L146.631 379.09L145.538 384.812L144.434 385.03C143.978 383.836 143.579 382.615 143.235 381.368C142.891 380.121 142.618 378.845 142.416 377.54L164.178 373.231L164.437 374.51C163.502 375.185 162.366 375.776 161.031 376.286L166.316 402.442C166.928 402.443 167.561 402.471 168.215 402.525C168.874 402.608 169.522 402.709 170.158 402.828L170.417 404.107L149.493 408.25Z" fill="#7290B3"/>
<path d="M103.087 376.931L114.549 378.079L114.431 379.379C113.218 379.8 111.991 380.039 110.751 380.095L108.326 406.67C108.912 406.849 109.496 407.059 110.076 407.298C110.654 407.567 111.231 407.851 111.806 408.149L111.687 409.449L100.225 408.3L100.343 407.001C100.902 406.816 101.505 406.65 102.151 406.503C102.794 406.387 103.42 406.299 104.028 406.239L106.452 379.665C105.836 379.482 105.223 379.27 104.612 379.028C104.002 378.786 103.454 378.52 102.968 378.23L103.087 376.931Z" fill="#7290B3"/>
<path d="M72.4531 402.189L63.0717 399.646L63.4 398.383C64.8274 397.9 66.1654 397.641 67.4142 397.606L74.6927 369.602L77.1684 370.273L86.6972 398.545L87.5081 402.401L87.6384 402.436L88.1304 398.933L93.5073 378.246C92.4031 377.604 91.4204 376.794 90.5592 375.815L90.8874 374.552L100.269 377.095L99.9405 378.358C99.3363 378.536 98.7145 378.663 98.075 378.738C97.3991 378.834 96.7017 378.894 95.9829 378.917L89.4967 403.873C90.0155 404.262 90.5304 404.666 91.0416 405.084C91.5238 405.494 91.9771 405.897 92.4014 406.292L92.0844 407.511L84.7444 405.521L76.4401 381.125L75.4157 376.838L75.2419 376.79L74.4856 380.595L69.8898 398.277C70.43 398.704 70.9519 399.14 71.4555 399.588C71.9302 400.027 72.3721 400.473 72.7813 400.926L72.4531 402.189Z" fill="#7290B3"/>
<path d="M36.9629 386.746L28.3861 382.173L28.9877 381.014C30.4867 380.862 31.8486 380.908 33.0734 381.153L46.4121 355.476L48.6754 356.683L51.6591 386.372L51.5897 390.313L51.7088 390.376L52.9695 387.071L62.8231 368.103C61.8898 367.231 61.1127 366.222 60.4916 365.075L61.0932 363.917L69.6701 368.49L69.0685 369.648C68.4398 369.687 67.8055 369.672 67.1654 369.602C66.4851 369.545 65.792 369.448 65.0864 369.309L53.1999 392.191C53.6186 392.687 54.0305 393.195 54.4355 393.717C54.814 394.225 55.166 394.719 55.4916 395.198L54.9107 396.316L48.2001 392.738L45.5458 367.1L45.5033 362.692L45.3445 362.607L43.759 366.147L35.3368 382.36C35.7682 382.896 36.1795 383.438 36.5707 383.987C36.9353 384.521 37.2666 385.055 37.5645 385.588L36.9629 386.746Z" fill="#7290B3"/>
<path d="M30.4115 364.278C28.8652 366.035 27.2033 367.446 25.4257 368.511C23.6059 369.58 21.7734 370.254 19.9282 370.534C18.0407 370.816 16.1702 370.671 14.3168 370.098C12.4633 369.524 10.6987 368.487 9.02294 366.986C7.34721 365.484 6.11785 363.839 5.33487 362.05C4.55188 360.261 4.19922 358.414 4.27688 356.51C4.31237 354.608 4.75962 352.693 5.61863 350.764C6.43547 348.837 7.61703 346.996 9.16331 345.24C10.7096 343.483 12.3926 342.071 14.2124 341.003C15.99 339.937 17.8225 339.263 19.7099 338.981C21.5552 338.701 23.4046 338.847 25.2581 339.42C27.1116 339.994 28.8762 341.031 30.5519 342.532C32.2276 344.034 33.457 345.679 34.24 347.468C35.0229 349.257 35.3967 351.103 35.3612 353.004C35.2835 354.908 34.8363 356.824 34.0194 358.75C33.1604 360.679 31.9578 362.522 30.4115 364.278ZM26.8255 361.065C28.0942 359.624 29.1483 358.132 29.9878 356.588C30.7852 355.047 31.2985 353.533 31.5279 352.047C31.7572 350.561 31.6617 349.126 31.2412 347.742C30.8009 346.381 29.9552 345.14 28.704 344.018C27.5645 342.997 26.3323 342.377 25.0075 342.156C23.6629 341.959 22.3061 342.092 20.9373 342.557C19.5461 343.003 18.1614 343.736 16.7831 344.756C15.3627 345.78 14.0181 347.012 12.7494 348.453C11.4806 349.894 10.4364 351.375 9.61672 352.896C8.7772 354.44 8.24277 355.955 8.01342 357.441C7.78407 358.927 7.88954 360.351 8.32983 361.712C8.75029 363.096 9.58612 364.348 10.8373 365.47C12.0662 366.571 13.3641 367.23 14.7311 367.448C16.0559 367.668 17.4027 367.546 18.7716 367.081C20.1404 366.615 21.5127 365.851 22.8885 364.788C24.2444 363.747 25.5567 362.506 26.8255 361.065Z" fill="#7290B3"/>
<path d="M-19.1767 328.548C-18.8934 329.228 -18.6478 329.879 -18.44 330.501C-18.2569 331.14 -18.0823 331.767 -17.9161 332.382L-18.9895 333.124L-24.7086 324.769L-23.6352 324.027C-22.7489 324.472 -21.8304 325.15 -20.8797 326.061L8.77623 317.921L10.6184 319.656L-7.25556 345.964C-7.04004 346.545 -6.84532 347.121 -6.67141 347.694C-6.52219 348.284 -6.38143 348.861 -6.24915 349.426L-7.32257 350.168L-14.0584 340.328L-12.985 339.586C-12.5242 339.887 -12.0295 340.238 -11.5009 340.639C-10.997 341.056 -10.4884 341.507 -9.97531 341.991L2.59385 323.946L5.02124 321.119L4.9704 321.044L1.42684 322.4L-19.1767 328.548Z" fill="#7290B3"/>
<path d="M-1.62125 298.642L1.9836 307.959L0.766303 308.429C-0.0711507 307.595 -0.79667 306.717 -1.41025 305.797L-33.1805 305.867L-33.6514 304.65L-10.0976 283.344C-10.2022 282.741 -10.2874 282.147 -10.3531 281.561C-10.4297 280.947 -10.4201 280.349 -10.3243 279.765L-9.10699 279.294L-4.95005 290.038L-6.16735 290.509C-6.60772 290.036 -7.02553 289.538 -7.42077 289.015C-7.816 288.492 -8.17784 287.973 -8.50628 287.456L-15.0836 293.278L-11.2027 303.309L-2.44949 303.111C-2.73625 301.871 -2.86594 300.538 -2.83855 299.112L-1.62125 298.642ZM-13.7102 303.313L-16.9903 294.835L-24.6064 301.589L-27.9078 303.781L-27.8753 303.865L-23.7755 303.487L-13.7102 303.313Z" fill="#7290B3"/>
<path d="M-26.0252 174.186L-21.9595 165.357L-20.7801 165.916C-20.5481 167.42 -20.5203 168.794 -20.6969 170.038L5.45186 182.427L4.37896 184.757L-24.8612 188.978L-28.7673 189.069L-28.8237 189.192L-25.4823 190.327L-6.16555 199.479C-5.35284 198.503 -4.39527 197.678 -3.29285 197.006L-2.11351 197.564L-6.17924 206.393L-7.35858 205.834C-7.43093 205.203 -7.45006 204.563 -7.41598 203.915C-7.39647 203.227 -7.33729 202.525 -7.23845 201.808L-30.5406 190.769C-31.0084 191.211 -31.4898 191.647 -31.9848 192.076C-32.4672 192.478 -32.9371 192.853 -33.3944 193.201L-34.5331 192.661L-31.3521 185.753L-6.10611 182.03L-1.74291 181.807L-1.66762 181.643L-5.25909 180.19L-21.7698 172.368C-22.2774 172.825 -22.7922 173.261 -23.3142 173.678C-23.8238 174.067 -24.3343 174.423 -24.8459 174.745L-26.0252 174.186Z" fill="#7290B3"/>
<path d="M10.9995 146.105C9.40859 144.389 8.16951 142.589 7.28222 140.706C6.39639 138.779 5.90097 136.877 5.79595 134.999C5.69239 133.078 6.00982 131.214 6.74826 129.407C7.4867 127.6 8.67528 125.926 10.314 124.384C11.9527 122.842 13.692 121.762 15.5318 121.143C17.3716 120.524 19.2282 120.343 21.1016 120.598C22.9764 120.812 24.8265 121.439 26.6519 122.482C28.4787 123.481 30.1875 124.839 31.7784 126.555C33.3693 128.271 34.6076 130.092 35.4935 132.019C36.3808 133.902 36.8762 135.805 36.9798 137.726C37.0848 139.604 36.7681 141.446 36.0296 143.253C35.2912 145.06 34.1026 146.735 32.4639 148.276C30.8252 149.818 29.0859 150.898 27.2461 151.517C25.4063 152.136 23.549 152.339 21.6741 152.126C19.8007 151.87 17.9506 151.242 16.1238 150.243C14.2985 149.2 12.5903 147.821 10.9995 146.105ZM14.5063 142.806C15.8117 144.214 17.1876 145.411 18.6342 146.398C20.0823 147.342 21.5296 147.999 22.9762 148.368C24.4227 148.737 25.8489 148.775 27.2546 148.482C28.6399 148.167 29.9444 147.434 31.168 146.283C32.2823 145.234 33.0099 144.056 33.3506 142.746C33.671 141.415 33.6651 140.041 33.3329 138.624C33.0225 137.186 32.4273 135.727 31.5473 134.249C30.6688 132.727 29.5769 131.263 28.2716 129.855C26.9662 128.447 25.6005 127.26 24.1742 126.296C22.7276 125.309 21.281 124.631 19.8345 124.262C18.3879 123.893 16.972 123.866 15.5866 124.181C14.1809 124.474 12.8663 125.196 11.6427 126.347C10.441 127.477 9.66897 128.719 9.32673 130.07C8.98595 131.38 8.98167 132.743 9.31391 134.16C9.64614 135.578 10.2734 137.026 11.1956 138.506C12.0974 139.965 13.201 141.398 14.5063 142.806Z" fill="#7290B3"/>
<path d="M51.0954 129.627C51.7618 129.395 52.4104 129.192 53.0412 129.017C53.6564 128.817 54.2822 128.662 54.9186 128.554L55.5956 129.67L45.5 135.846L44.8229 134.731C45.2303 134.13 45.6509 133.609 46.0849 133.167C46.5189 132.726 46.9607 132.297 47.4103 131.882L33.5655 109.069C32.8223 109.348 32.1481 109.567 31.5429 109.726C30.9221 109.86 30.3525 109.962 29.8341 110.033L29.1571 108.917L32.5351 106.851C33.5587 106.225 34.6408 105.492 35.7813 104.654C36.9474 103.8 38.1063 103.021 39.2579 102.316C40.5118 101.549 41.7618 100.978 43.0079 100.602C44.2795 100.211 45.4987 100.081 46.6656 100.211C47.8325 100.341 48.9214 100.748 49.9323 101.43C50.9688 102.097 51.8918 103.098 52.7012 104.431C53.8374 106.304 54.28 108.16 54.0291 110.002C53.8037 111.828 53.01 113.527 51.6478 115.099C53.8066 116.17 56.0088 117.196 58.2545 118.179C60.5001 119.161 62.7891 120.1 65.1215 120.994L67.8714 120.841L68.4551 121.803L63.8103 124.645L61.6979 124.46C60.4366 124 59.2548 123.528 58.1526 123.041C57.0348 122.53 55.9554 121.994 54.9144 121.435C53.8578 120.851 52.8268 120.251 51.8214 119.635C50.826 118.978 49.7868 118.277 48.7035 117.533L45.0952 119.741L51.0954 129.627ZM39.6274 104.833C39.0132 105.209 38.5092 105.535 38.1153 105.811C37.747 106.071 37.4199 106.342 37.1339 106.622L44.1146 118.125L46.8784 116.434C48.6442 115.354 49.6965 113.936 50.0353 112.182C50.3997 110.411 50.0216 108.603 48.9009 106.756C47.7491 104.858 46.3506 103.797 44.7055 103.573C43.0603 103.348 41.3676 103.769 39.6274 104.833Z" fill="#7290B3"/>
<path d="M81.1163 116.781L70.5368 121.34L70.021 120.141C70.8821 119.182 71.8418 118.376 72.9002 117.724L62.3531 93.212C61.7547 93.3392 61.1444 93.4389 60.5222 93.511C59.8882 93.5555 59.2482 93.5863 58.6024 93.6033L58.0866 92.4045L68.666 87.8455L69.1818 89.0442C68.7808 89.4784 68.3325 89.9166 67.8369 90.3588C67.3295 90.7735 66.824 91.1546 66.3204 91.5023L76.8675 116.015C77.4935 115.875 78.1314 115.764 78.7811 115.68C79.4308 115.596 80.0373 115.563 80.6005 115.582L81.1163 116.781Z" fill="#7290B3"/>
<path d="M108.296 106.469C107.83 106.933 107.262 107.424 106.592 107.941C105.944 108.422 105.234 108.903 104.462 109.385C103.711 109.831 102.935 110.237 102.132 110.603C101.366 110.991 100.62 111.28 99.8948 111.471C97.5737 112.082 95.4039 112.327 93.3851 112.206C91.3587 112.057 89.5231 111.516 87.8783 110.584C86.2258 109.623 84.7748 108.252 83.5252 106.471C82.3047 104.683 81.332 102.426 80.6073 99.701C79.8518 96.8597 79.6142 94.332 79.8946 92.1178C80.2041 89.896 80.8748 87.9823 81.9069 86.3769C82.9603 84.7349 84.2841 83.4095 85.8784 82.4007C87.494 81.3552 89.2157 80.5921 91.0435 80.1112C92.9584 79.6075 94.6033 79.3143 95.9782 79.2318C97.3745 79.1126 98.6314 79.1697 99.7489 79.4031C99.8645 79.838 99.9927 80.3782 100.133 81.0236C100.274 81.6691 100.408 82.3474 100.535 83.0585C100.662 83.7695 100.774 84.4844 100.872 85.2032C100.962 85.8929 101.033 86.5101 101.085 87.0549L99.9537 87.3526L96.0254 81.6855C95.66 81.5955 95.0924 81.6208 94.3227 81.7612C93.5529 81.9017 92.8054 82.0673 92.0801 82.2581C90.6294 82.6398 89.3246 83.2778 88.1655 84.1721C86.9987 85.0374 86.0724 86.1652 85.3866 87.5554C84.7221 88.909 84.3272 90.5174 84.2018 92.3806C84.0687 94.2148 84.3067 96.2771 84.9157 98.5675C85.4631 100.626 86.2321 102.409 87.2228 103.917C88.2425 105.416 89.4036 106.631 90.7062 107.56C92.03 108.453 93.444 109.042 94.9482 109.329C96.4814 109.608 98.0314 109.542 99.5981 109.13C100.178 108.977 100.729 108.77 101.249 108.509C101.769 108.248 102.242 107.984 102.668 107.717C103.086 107.421 103.417 107.148 103.661 106.897C103.934 106.64 104.113 106.437 104.198 106.291L101.862 97.5061C101.092 97.6466 100.332 97.7069 99.582 97.6872C98.8607 97.6598 98.1356 97.6179 97.4067 97.5615L97.0713 96.3003L107.734 93.4953L108.069 94.7565C107.833 95.0358 107.535 95.3158 107.175 95.5966C106.815 95.8774 106.306 96.1819 105.648 96.5101L108.296 106.469Z" fill="#7290B3"/>
<path d="M125.769 106.788L114.312 107.994L114.168 106.697C115.272 106.038 116.426 105.554 117.629 105.247L114.683 78.7247C114.074 78.6683 113.46 78.582 112.844 78.466C112.224 78.3201 111.602 78.1593 110.979 77.9837L110.835 76.6866L122.292 75.48L122.436 76.777C121.925 77.0721 121.368 77.357 120.765 77.6317C120.158 77.8766 119.563 78.0901 118.98 78.2722L121.925 104.794C122.565 104.847 123.208 104.931 123.855 105.043C124.501 105.156 125.091 105.305 125.625 105.49L125.769 106.788Z" fill="#7290B3"/>
<path d="M151.118 75.6765L160.822 76.2291L160.758 77.5326C159.46 78.3 158.203 78.8293 156.987 79.1207L155.582 108.022L153.022 107.876L137.917 82.1812L136.335 78.5755L136.2 78.5679L136.434 82.0968L135.396 103.447C136.608 103.846 137.736 104.436 138.779 105.217L138.716 106.52L129.012 105.968L129.075 104.664C129.63 104.365 130.213 104.113 130.824 103.907C131.466 103.673 132.137 103.471 132.836 103.301L134.087 77.5461C133.5 77.2723 132.913 76.9835 132.327 76.6797C131.771 76.3776 131.245 76.0772 130.749 75.7785L130.81 74.52L138.403 74.9524L151.518 97.1082L153.396 101.091L153.576 101.102L153.539 97.2233L154.426 78.9748C153.81 78.6693 153.21 78.3497 152.626 78.0159C152.071 77.6839 151.547 77.3386 151.054 76.98L151.118 75.6765Z" fill="#7290B3"/>
<path d="M168.894 110.374L159.252 107.76L159.58 106.497C160.743 106.315 161.876 106.249 162.979 106.3L181.427 80.5771L182.687 80.9185L186.215 112.599C186.764 112.872 187.295 113.156 187.807 113.45C188.349 113.752 188.828 114.115 189.245 114.539L188.916 115.802L177.798 112.788L178.126 111.525C178.765 111.449 179.412 111.407 180.065 111.398C180.718 111.388 181.35 111.404 181.959 111.445L181.077 102.674L170.697 99.86L165.759 107.053C166.93 107.557 168.084 108.243 169.222 109.111L168.894 110.374ZM172.154 97.8308L180.927 100.209L179.896 90.0458L180.044 86.0765L179.957 86.053L177.875 89.5913L172.154 97.8308Z" fill="#7290B3"/>
<path d="M201.881 87.6544L212.967 93.0525L212.408 94.2319C211.645 94.1607 210.895 94.0624 210.158 93.937C209.434 93.7845 208.729 93.5913 208.043 93.3574L196.602 117.515L205.908 122.047L211.396 116.661L212.448 117.173C212.259 117.782 212.012 118.479 211.706 119.265C211.44 120.036 211.128 120.835 210.77 121.662C210.452 122.474 210.113 123.26 209.753 124.019C209.394 124.778 209.059 125.45 208.75 126.033L188.399 116.123L188.958 114.944C189.746 114.961 190.442 115.033 191.046 115.16C191.65 115.287 192.214 115.428 192.738 115.583L204.159 91.4661C203.59 91.0556 203.061 90.6311 202.571 90.1926C202.095 89.727 201.678 89.2741 201.323 88.8339L201.881 87.6544Z" fill="#7290B3"/>
<path d="M220.046 134.059L210.523 127.577L211.246 126.49C212.513 126.699 213.704 127.075 214.821 127.617L229.612 105.407C229.182 104.969 228.77 104.507 228.373 104.019C227.994 103.507 227.623 102.982 227.26 102.444L227.983 101.358L237.506 107.841L236.783 108.927C236.203 108.823 235.595 108.681 234.958 108.501C234.337 108.296 233.746 108.075 233.183 107.837L218.392 130.048C218.846 130.502 219.284 130.982 219.705 131.486C220.126 131.99 220.481 132.486 220.77 132.973L220.046 134.059Z" fill="#7290B3"/>
<path d="M236.757 148.885L227.605 140.16L228.497 139.208C229.139 139.488 229.761 139.79 230.361 140.115C230.984 140.459 231.619 140.857 232.265 141.308L250.578 121.775L245.595 117.024L239.467 120.073L238.653 119.297C238.998 118.797 239.406 118.253 239.875 117.664C240.365 117.054 240.855 116.444 241.346 115.833C241.878 115.222 242.39 114.632 242.881 114.064C243.393 113.474 243.854 112.961 244.264 112.523L263.188 130.563C262.778 131.001 262.305 131.483 261.77 132.009C261.236 132.536 260.67 133.074 260.072 133.623C259.517 134.171 258.951 134.709 258.374 135.237C257.839 135.763 257.324 136.225 256.828 136.623L255.981 135.816L258.689 129.507L253.705 124.756L235.392 144.288C235.854 144.936 236.273 145.542 236.648 146.107C237.045 146.693 237.379 147.301 237.65 147.933L236.757 148.885Z" fill="#7290B3"/>
<path d="M278.191 151.198L283.75 159.39L282.673 160.128C281.563 159.507 280.613 158.775 279.825 157.934L262.132 159.749L253.037 165.982C253.571 167.035 253.914 168.182 254.067 169.422L252.991 170.16L246.572 160.702L247.649 159.965C248.701 160.553 249.688 161.367 250.612 162.407L259.669 156.2L267.519 139.8C267.23 139.161 266.992 138.543 266.803 137.945C266.657 137.354 266.522 136.755 266.4 136.148L267.476 135.41L274.173 145.278L273.096 146.015C272.695 145.745 272.248 145.433 271.755 145.08C271.286 144.71 270.775 144.278 270.223 143.784L263.454 157.37L278.258 155.625C277.994 154.969 277.76 154.33 277.555 153.707C277.391 153.092 277.244 152.501 277.114 151.936L278.191 151.198Z" fill="#7290B3"/>
</svg>
