<svg width="445" height="485" viewBox="0 0 445 485" fill="none" xmlns="http://www.w3.org/2000/svg">
<path d="M338.875 208.147C338.853 208.852 338.81 209.531 338.748 210.182C338.714 210.828 338.634 211.468 338.507 212.1L337.222 212.332L335.075 200.693L336.359 200.462C336.774 201.058 337.11 201.637 337.366 202.201C337.623 202.764 337.865 203.33 338.092 203.899L364.354 199.169C364.36 198.375 364.397 197.668 364.466 197.046C364.563 196.418 364.672 195.85 364.792 195.341L366.076 195.11L366.795 199.004C367.012 200.184 367.308 201.457 367.682 202.822C368.061 204.217 368.374 205.578 368.619 206.906C368.885 208.351 368.971 209.723 368.875 211.02C368.784 212.347 368.469 213.532 367.929 214.574C367.389 215.616 366.619 216.487 365.619 217.185C364.625 217.913 363.36 218.415 361.824 218.691C359.669 219.08 357.777 218.826 356.147 217.931C354.523 217.065 353.222 215.714 352.242 213.879C350.469 215.509 348.721 217.195 346.998 218.938C345.276 220.681 343.579 222.48 341.908 224.336L341.065 226.957L339.958 227.156L338.97 221.802L339.899 219.897C340.78 218.885 341.645 217.951 342.495 217.097C343.373 216.238 344.26 215.423 345.155 214.652C346.079 213.876 347.009 213.129 347.945 212.412C348.915 211.719 349.942 211.001 351.025 210.257L350.257 206.097L338.875 208.147ZM366.136 206.347C366.005 205.639 365.882 205.051 365.765 204.585C365.654 204.147 365.519 203.745 365.359 203.377L352.117 205.762L352.705 208.949C353.081 210.984 354.027 212.475 355.544 213.421C357.066 214.397 358.89 214.693 361.016 214.31C363.201 213.917 364.693 212.993 365.492 211.538C366.292 210.083 366.506 208.353 366.136 206.347Z" fill="#7290B3"/>
<path d="M370.772 250.692C369.573 250.62 368.361 250.517 367.134 250.384C365.936 250.281 364.725 250.133 363.5 249.94L363.532 248.77L368.529 247.101L368.797 237.295L356.879 236.874L356.679 244.206L359.959 246.078L359.928 247.202C356.955 247.277 353.927 247.171 350.844 246.882L350.875 245.757L354.34 244.123L354.54 236.791L341.993 236.348L341.711 246.694L347.047 249.089L347.017 250.213C345.752 250.379 344.473 250.484 343.182 250.528C341.89 250.573 340.586 250.542 339.268 250.435L339.873 228.258L341.177 228.304C341.628 229.371 341.955 230.613 342.156 232.031L368.824 232.973C368.961 232.377 369.127 231.768 369.325 231.145C369.552 230.522 369.793 229.915 370.049 229.324L371.354 229.37L370.772 250.692Z" fill="#7290B3"/>
<path d="M369.668 260.816L367.046 272.864L365.774 272.573C365.664 271.81 365.583 271.053 365.531 270.302C365.509 269.559 365.53 268.825 365.596 268.102L339.536 262.152L337.336 272.266L343.834 276.472L343.585 277.616C342.952 277.563 342.22 277.473 341.388 277.345C340.579 277.252 339.733 277.121 338.849 276.95C337.988 276.815 337.148 276.654 336.329 276.467C335.51 276.28 334.782 276.098 334.145 275.922L338.958 253.805L340.231 254.095C340.399 254.872 340.493 255.57 340.511 256.19C340.53 256.81 340.526 257.393 340.499 257.941L366.514 263.88C366.778 263.233 367.065 262.621 367.374 262.046C367.713 261.477 368.053 260.97 368.396 260.525L369.668 260.816Z" fill="#7290B3"/>
<path d="M354.267 309.838C353.178 309.333 352.087 308.793 350.994 308.22C349.917 307.687 348.843 307.106 347.773 306.478L348.227 305.4L353.484 305.672L357.294 296.632L346.356 291.881L343.508 298.64L345.88 301.584L345.443 302.621C342.649 301.603 339.87 300.396 337.106 298.999L337.543 297.963L341.361 297.708L344.21 290.949L332.694 285.947L328.675 295.485L332.771 299.668L332.334 300.704C331.097 300.396 329.87 300.026 328.651 299.595C327.433 299.164 326.23 298.658 325.043 298.077L333.659 277.633L334.856 278.153C334.888 279.312 334.741 280.589 334.413 281.984L358.889 292.615C359.232 292.11 359.609 291.603 360.018 291.094C360.456 290.597 360.901 290.12 361.354 289.663L362.551 290.183L354.267 309.838Z" fill="#7290B3"/>
<path d="M334.56 337.212C335.086 336.7 335.6 336.235 336.1 335.815C336.626 335.412 337.142 335.021 337.651 334.643L338.725 335.384L333.061 343.776L331.987 343.036C332.078 342.042 332.374 340.934 332.873 339.711L314.632 314.777L315.572 312.419L346.366 319.718C346.825 319.306 347.289 318.915 347.756 318.545C348.247 318.192 348.731 317.851 349.206 317.522L350.28 318.263L343.609 328.148L342.535 327.407C342.647 326.865 342.793 326.273 342.973 325.632C343.177 325.007 343.41 324.367 343.673 323.71L322.439 318.412L318.947 317.151L318.897 317.226L321.431 320.067L334.56 337.212Z" fill="#7290B3"/>
<path d="M301.021 331.583L308.122 324.556L309.033 325.491C308.6 326.595 308.083 327.612 307.483 328.544L320.083 357.793L319.155 358.711L290.369 345.476C289.859 345.812 289.349 346.127 288.839 346.42C288.308 346.735 287.756 346.964 287.184 347.108L286.274 346.173L294.463 338.071L295.373 339.006C295.114 339.599 294.824 340.182 294.501 340.754C294.179 341.326 293.847 341.866 293.504 342.374L301.426 346.121L309.071 338.557L305.436 330.569C304.415 331.326 303.246 331.976 301.931 332.517L301.021 331.583ZM310.064 340.866L303.602 347.259L312.786 351.592L316.095 353.763L316.159 353.7L314.195 350.072L310.064 340.866Z" fill="#7290B3"/>
<path d="M286.297 383.495L278.137 388.777L277.432 387.678C278.036 386.287 278.745 385.113 279.558 384.158L263.935 359.804L266.088 358.41L293.189 370.404L296.558 372.405L296.671 372.332L294.436 369.597L282.894 351.606C281.683 351.996 280.43 352.182 279.135 352.163L278.43 351.065L286.59 345.783L287.295 346.881C287.02 347.453 286.695 348.002 286.321 348.53C285.938 349.1 285.513 349.66 285.048 350.212L298.97 371.915C299.603 371.791 300.245 371.68 300.894 371.581C301.519 371.499 302.118 371.433 302.692 371.383L303.372 372.443L296.988 376.576L273.546 366.286L269.719 364.154L269.568 364.252L271.846 367.387L281.711 382.765C282.386 382.65 283.056 382.555 283.722 382.482C284.362 382.425 284.986 382.396 285.592 382.397L286.297 383.495Z" fill="#7290B3"/>
<path d="M240.182 379.266L239.093 379.693C238.646 378.966 238.131 378.024 237.548 376.867C236.976 375.738 236.498 374.604 236.115 373.465C236.403 372.966 236.796 372.489 237.294 372.036C237.804 371.61 238.367 371.196 238.982 370.793C239.57 370.401 240.201 370.041 240.878 369.711C241.526 369.392 242.157 369.112 242.772 368.871C245.117 367.95 247.327 367.421 249.4 367.284C251.485 367.175 253.411 367.483 255.178 368.207C256.917 368.943 258.508 370.123 259.952 371.748C261.379 373.412 262.607 375.556 263.638 378.181C264.713 380.917 265.246 383.383 265.237 385.578C265.24 387.801 264.835 389.764 264.022 391.469C263.219 393.202 262.076 394.682 260.592 395.909C259.108 397.136 257.43 398.117 255.559 398.851C253.716 399.575 252.117 400.057 250.761 400.299C249.417 400.569 248.177 400.653 247.041 400.551C246.866 400.104 246.671 399.568 246.458 398.943C246.256 398.345 246.051 397.701 245.843 397.009C245.636 396.316 245.448 395.633 245.28 394.958C245.111 394.283 244.965 393.663 244.84 393.1L245.93 392.672L250.476 397.849C250.849 397.896 251.41 397.805 252.158 397.576C252.878 397.358 253.587 397.112 254.285 396.838C255.681 396.29 256.904 395.504 257.952 394.48C258.983 393.495 259.76 392.272 260.282 390.81C260.787 389.387 260.995 387.742 260.907 385.876C260.829 384.037 260.357 382.014 259.491 379.808C258.713 377.826 257.754 376.123 256.615 374.701C255.488 373.307 254.224 372.223 252.825 371.451C251.437 370.707 249.938 370.296 248.329 370.219C246.73 370.169 245.065 370.484 243.334 371.164C242.412 371.526 241.672 371.897 241.112 372.278C240.553 372.658 240.219 372.999 240.111 373.299L240.182 379.266Z" fill="#7290B3"/>
<path d="M217.493 408.25C217.285 407.067 217.103 405.865 216.947 404.642C216.769 403.454 216.631 402.243 216.535 401.008L217.682 400.781L220.473 405.274L230.096 403.369L227.734 391.68L220.539 393.105L219.477 396.71L218.373 396.928C217.608 394.052 217.008 391.082 216.573 388.018L217.676 387.8L220.075 390.811L227.271 389.387L224.784 377.08L214.631 379.09L213.538 384.812L212.434 385.03C211.978 383.836 211.579 382.615 211.235 381.368C210.891 380.121 210.618 378.845 210.416 377.54L232.178 373.231L232.437 374.51C231.502 375.185 230.366 375.776 229.031 376.286L234.316 402.442C234.928 402.443 235.561 402.471 236.215 402.525C236.874 402.608 237.522 402.709 238.158 402.828L238.417 404.107L217.493 408.25Z" fill="#7290B3"/>
<path d="M171.087 376.931L182.549 378.079L182.431 379.379C181.218 379.8 179.991 380.039 178.751 380.095L176.326 406.67C176.912 406.849 177.496 407.059 178.076 407.298C178.654 407.567 179.231 407.851 179.806 408.149L179.687 409.449L168.225 408.3L168.343 407.001C168.902 406.816 169.505 406.65 170.151 406.503C170.794 406.387 171.42 406.299 172.028 406.239L174.452 379.665C173.836 379.482 173.223 379.27 172.612 379.028C172.002 378.786 171.454 378.52 170.968 378.23L171.087 376.931Z" fill="#7290B3"/>
<path d="M140.453 402.189L131.072 399.646L131.4 398.383C132.827 397.9 134.165 397.641 135.414 397.606L142.693 369.602L145.168 370.273L154.697 398.545L155.508 402.401L155.638 402.436L156.13 398.933L161.507 378.246C160.403 377.604 159.42 376.794 158.559 375.815L158.887 374.552L168.269 377.095L167.941 378.358C167.336 378.536 166.714 378.663 166.075 378.738C165.399 378.834 164.702 378.894 163.983 378.917L157.497 403.873C158.015 404.262 158.53 404.666 159.042 405.084C159.524 405.494 159.977 405.897 160.401 406.292L160.084 407.511L152.744 405.521L144.44 381.125L143.416 376.838L143.242 376.79L142.486 380.595L137.89 398.277C138.43 398.704 138.952 399.14 139.455 399.588C139.93 400.027 140.372 400.473 140.781 400.926L140.453 402.189Z" fill="#7290B3"/>
<path d="M104.963 386.746L96.3861 382.173L96.9877 381.014C98.4867 380.862 99.8486 380.908 101.073 381.153L114.412 355.476L116.675 356.683L119.659 386.372L119.59 390.313L119.709 390.376L120.969 387.071L130.823 368.103C129.89 367.231 129.113 366.222 128.492 365.075L129.093 363.917L137.67 368.49L137.068 369.648C136.44 369.687 135.806 369.672 135.165 369.602C134.485 369.545 133.792 369.448 133.086 369.309L121.2 392.191C121.619 392.687 122.031 393.195 122.435 393.717C122.814 394.225 123.166 394.719 123.492 395.198L122.911 396.316L116.2 392.738L113.546 367.1L113.503 362.692L113.344 362.607L111.759 366.147L103.337 382.36C103.768 382.896 104.18 383.438 104.571 383.987C104.935 384.521 105.267 385.055 105.564 385.588L104.963 386.746Z" fill="#7290B3"/>
<path d="M98.4115 364.278C96.8652 366.035 95.2033 367.446 93.4257 368.511C91.6059 369.58 89.7734 370.254 87.9282 370.534C86.0407 370.816 84.1702 370.671 82.3168 370.098C80.4633 369.524 78.6987 368.487 77.0229 366.986C75.3472 365.484 74.1179 363.839 73.3349 362.05C72.5519 360.261 72.1992 358.414 72.2769 356.51C72.3124 354.608 72.7596 352.693 73.6186 350.764C74.4355 348.837 75.617 346.996 77.1633 345.24C78.7096 343.483 80.3926 342.071 82.2124 341.003C83.99 339.937 85.8225 339.263 87.7099 338.981C89.5552 338.701 91.4046 338.847 93.2581 339.42C95.1116 339.994 96.8762 341.031 98.5519 342.532C100.228 344.034 101.457 345.679 102.24 347.468C103.023 349.257 103.397 351.103 103.361 353.004C103.284 354.908 102.836 356.824 102.019 358.75C101.16 360.679 99.9578 362.522 98.4115 364.278ZM94.8255 361.065C96.0942 359.624 97.1483 358.132 97.9878 356.588C98.7852 355.047 99.2985 353.533 99.5279 352.047C99.7572 350.561 99.6617 349.126 99.2412 347.742C98.8009 346.381 97.9552 345.14 96.704 344.018C95.5645 342.997 94.3323 342.377 93.0075 342.156C91.6629 341.959 90.3061 342.092 88.9373 342.557C87.5461 343.003 86.1614 343.736 84.7831 344.756C83.3627 345.78 82.0181 347.012 80.7494 348.453C79.4806 349.894 78.4364 351.375 77.6167 352.896C76.7772 354.44 76.2428 355.955 76.0134 357.441C75.7841 358.927 75.8895 360.351 76.3298 361.712C76.7503 363.096 77.5861 364.348 78.8373 365.47C80.0662 366.571 81.3641 367.23 82.7311 367.448C84.0559 367.668 85.4027 367.546 86.7716 367.081C88.1404 366.615 89.5127 365.851 90.8885 364.788C92.2444 363.747 93.5567 362.506 94.8255 361.065Z" fill="#7290B3"/>
<path d="M48.8233 328.548C49.1066 329.228 49.3522 329.879 49.56 330.501C49.7431 331.14 49.9177 331.767 50.0839 332.382L49.0105 333.124L43.2914 324.769L44.3648 324.027C45.2511 324.472 46.1696 325.15 47.1203 326.061L76.7762 317.921L78.6184 319.656L60.7444 345.964C60.96 346.545 61.1547 347.121 61.3286 347.694C61.4778 348.284 61.6186 348.861 61.7509 349.426L60.6774 350.168L53.9416 340.328L55.015 339.586C55.4758 339.887 55.9705 340.238 56.4991 340.639C57.003 341.056 57.5116 341.507 58.0247 341.991L70.5939 323.946L73.0212 321.119L72.9704 321.044L69.4268 322.4L48.8233 328.548Z" fill="#7290B3"/>
<path d="M66.3787 298.642L69.9836 307.959L68.7663 308.429C67.9288 307.595 67.2033 306.717 66.5897 305.797L34.8195 305.867L34.3486 304.65L57.9024 283.344C57.7978 282.741 57.7126 282.147 57.6469 281.561C57.5703 280.947 57.5799 280.349 57.6757 279.765L58.893 279.294L63.0499 290.038L61.8327 290.509C61.3923 290.036 60.9745 289.538 60.5792 289.015C60.184 288.492 59.8222 287.973 59.4937 287.456L52.9164 293.278L56.7973 303.309L65.5505 303.111C65.2637 301.871 65.1341 300.538 65.1615 299.112L66.3787 298.642ZM54.2898 303.313L51.0097 294.835L43.3936 301.589L40.0922 303.781L40.1247 303.865L44.2245 303.487L54.2898 303.313Z" fill="#7290B3"/>
<path d="M56.5469 261.16L58.441 273.663L57.1498 273.852C56.8134 273.234 56.5068 272.612 56.2298 271.986C55.9484 271.329 55.6899 270.624 55.4543 269.871L28.962 273.751L29.9933 280.558L36.7176 281.984L36.8861 283.096C36.3059 283.272 35.6493 283.444 34.9162 283.612C34.1534 283.785 33.3906 283.957 32.6279 284.129C31.8309 284.276 31.0636 284.419 30.326 284.557C29.5588 284.7 28.8783 284.815 28.2846 284.902L24.3684 259.052C24.9621 258.965 25.6322 258.882 26.3788 258.803C27.1254 258.724 27.9039 258.655 28.7143 258.597C29.4906 258.514 30.2691 258.445 31.0498 258.392C31.7964 258.313 32.4881 258.272 33.1249 258.27L33.3002 259.426L27.2836 262.673L28.3149 269.48L54.8072 265.599C54.8388 264.806 54.8794 264.073 54.9289 263.399C54.974 262.695 55.0829 262.012 55.2557 261.35L56.5469 261.16Z" fill="#7290B3"/>
<path d="M56.085 241.306L55.95 252.825L54.6453 252.8C54.1191 251.619 53.7732 250.412 53.6077 249.179L26.9277 248.659C26.8007 249.256 26.6437 249.853 26.4567 250.45C26.2397 251.046 26.0077 251.641 25.7608 252.236L24.456 252.211L24.591 240.692L25.8958 240.717C26.1294 241.262 26.3475 241.851 26.5501 242.485C26.7227 243.119 26.8654 243.737 26.9784 244.339L53.6583 244.859C53.7857 244.232 53.943 243.605 54.1304 242.978C54.3177 242.352 54.5343 241.786 54.7803 241.281L56.085 241.306Z" fill="#7290B3"/>
<path d="M40.1958 234.038C37.9051 233.561 35.8517 232.811 34.0358 231.789C32.1963 230.731 30.6882 229.467 29.5116 227.996C28.3115 226.489 27.4869 224.785 27.0378 222.884C26.5886 220.982 26.5826 218.928 27.0197 216.721C27.4568 214.513 28.2437 212.624 29.3805 211.053C30.5173 209.482 31.9217 208.258 33.5939 207.381C35.2425 206.468 37.1119 205.908 39.202 205.7C41.2685 205.457 43.4472 205.574 45.7379 206.052C48.0287 206.529 50.0938 207.297 51.9333 208.354C53.7493 209.376 55.2573 210.641 56.4574 212.147C57.634 213.618 58.4469 215.305 58.896 217.206C59.3451 219.108 59.3511 221.162 58.9141 223.369C58.477 225.576 57.69 227.466 56.5533 229.037C55.4165 230.607 54.0238 231.849 52.3751 232.762C50.703 233.639 48.8336 234.199 46.7671 234.443C44.677 234.651 42.4866 234.516 40.1958 234.038ZM41.1312 229.315C43.0107 229.707 44.8254 229.886 46.5752 229.852C48.3014 229.783 49.86 229.48 51.2508 228.942C52.6416 228.405 53.8236 227.609 54.7968 226.556C55.7406 225.496 56.3756 224.143 56.702 222.495C56.9992 220.994 56.9061 219.611 56.4227 218.345C55.9099 217.074 55.1067 215.957 54.0131 214.993C52.9253 214 51.5941 213.156 50.0194 212.46C48.4211 211.728 46.6822 211.167 44.8026 210.775C42.923 210.383 41.123 210.207 39.4026 210.247C37.6528 210.28 36.0825 210.566 34.6917 211.103C33.3009 211.641 32.1335 212.439 31.1898 213.499C30.2166 214.553 29.5669 215.903 29.2405 217.551C28.92 219.17 29.0132 220.629 29.5201 221.93C30.0035 223.195 30.792 224.31 31.8857 225.273C32.9793 226.237 34.331 227.055 35.9409 227.727C37.5215 228.394 39.2516 228.923 41.1312 229.315Z" fill="#7290B3"/>
<path d="M41.9748 174.186L46.0405 165.357L47.2199 165.916C47.4519 167.42 47.4797 168.794 47.3031 170.038L73.4519 182.427L72.379 184.757L43.1388 188.978L39.2327 189.069L39.1763 189.192L42.5177 190.327L61.8345 199.479C62.6472 198.503 63.6047 197.678 64.7071 197.006L65.8865 197.564L61.8208 206.393L60.6414 205.834C60.5691 205.203 60.5499 204.563 60.584 203.915C60.6035 203.227 60.6627 202.525 60.7616 201.808L37.4594 190.769C36.9916 191.211 36.5102 191.647 36.0152 192.076C35.5328 192.478 35.0629 192.853 34.6056 193.201L33.4669 192.661L36.6479 185.753L61.8939 182.03L66.2571 181.807L66.3324 181.643L62.7409 180.19L46.2302 172.368C45.7226 172.825 45.2078 173.261 44.6858 173.678C44.1762 174.067 43.6657 174.423 43.1541 174.745L41.9748 174.186Z" fill="#7290B3"/>
<path d="M78.9995 146.105C77.4086 144.389 76.1695 142.589 75.2822 140.706C74.3964 138.779 73.901 136.877 73.796 134.999C73.6924 133.078 74.0098 131.214 74.7483 129.407C75.4867 127.6 76.6753 125.926 78.314 124.384C79.9527 122.842 81.692 121.762 83.5318 121.143C85.3716 120.524 87.2282 120.343 89.1016 120.598C90.9764 120.812 92.8265 121.439 94.6519 122.482C96.4787 123.481 98.1875 124.839 99.7784 126.555C101.369 128.271 102.608 130.092 103.493 132.019C104.381 133.902 104.876 135.805 104.98 137.726C105.085 139.604 104.768 141.446 104.03 143.253C103.291 145.06 102.103 146.735 100.464 148.276C98.8252 149.818 97.0859 150.898 95.2461 151.517C93.4063 152.136 91.549 152.339 89.6741 152.126C87.8007 151.87 85.9506 151.242 84.1238 150.243C82.2985 149.2 80.5903 147.821 78.9995 146.105ZM82.5063 142.806C83.8117 144.214 85.1876 145.411 86.6342 146.398C88.0823 147.342 89.5296 147.999 90.9762 148.368C92.4227 148.737 93.8489 148.775 95.2546 148.482C96.6399 148.167 97.9444 147.434 99.168 146.283C100.282 145.234 101.01 144.056 101.351 142.746C101.671 141.415 101.665 140.041 101.333 138.624C101.022 137.186 100.427 135.727 99.5473 134.249C98.6688 132.727 97.5769 131.263 96.2716 129.855C94.9662 128.447 93.6005 127.26 92.1742 126.296C90.7276 125.309 89.281 124.631 87.8345 124.262C86.3879 123.893 84.972 123.866 83.5866 124.181C82.1809 124.474 80.8663 125.196 79.6427 126.347C78.441 127.477 77.669 128.719 77.3267 130.07C76.9859 131.38 76.9817 132.743 77.3139 134.16C77.6461 135.578 78.2734 137.026 79.1956 138.506C80.0974 139.965 81.201 141.398 82.5063 142.806Z" fill="#7290B3"/>
<path d="M119.095 129.627C119.762 129.395 120.41 129.192 121.041 129.017C121.656 128.817 122.282 128.662 122.919 128.554L123.596 129.67L113.5 135.846L112.823 134.731C113.23 134.13 113.651 133.609 114.085 133.167C114.519 132.726 114.961 132.297 115.41 131.882L101.566 109.069C100.822 109.348 100.148 109.567 99.5429 109.726C98.9221 109.86 98.3525 109.962 97.8341 110.033L97.1571 108.917L100.535 106.851C101.559 106.225 102.641 105.492 103.781 104.654C104.947 103.8 106.106 103.021 107.258 102.316C108.512 101.549 109.762 100.978 111.008 100.602C112.279 100.211 113.499 100.081 114.666 100.211C115.832 100.341 116.921 100.748 117.932 101.43C118.969 102.097 119.892 103.098 120.701 104.431C121.837 106.304 122.28 108.16 122.029 110.002C121.804 111.828 121.01 113.527 119.648 115.099C121.807 116.17 124.009 117.196 126.254 118.179C128.5 119.161 130.789 120.1 133.121 120.994L135.871 120.841L136.455 121.803L131.81 124.645L129.698 124.46C128.437 124 127.255 123.528 126.153 123.041C125.035 122.53 123.955 121.994 122.914 121.435C121.858 120.851 120.827 120.251 119.821 119.635C118.826 118.978 117.787 118.277 116.704 117.533L113.095 119.741L119.095 129.627ZM107.627 104.833C107.013 105.209 106.509 105.535 106.115 105.811C105.747 106.071 105.42 106.342 105.134 106.622L112.115 118.125L114.878 116.434C116.644 115.354 117.697 113.936 118.035 112.182C118.4 110.411 118.022 108.603 116.901 106.756C115.749 104.858 114.351 103.797 112.705 103.573C111.06 103.348 109.368 103.769 107.627 104.833Z" fill="#7290B3"/>
<path d="M149.116 116.781L138.537 121.34L138.021 120.141C138.882 119.182 139.842 118.376 140.9 117.724L130.353 93.212C129.755 93.3392 129.144 93.4389 128.522 93.511C127.888 93.5555 127.248 93.5863 126.602 93.6033L126.087 92.4045L136.666 87.8455L137.182 89.0442C136.781 89.4784 136.332 89.9166 135.837 90.3588C135.329 90.7735 134.824 91.1546 134.32 91.5023L144.868 116.015C145.494 115.875 146.131 115.764 146.781 115.68C147.431 115.596 148.037 115.563 148.6 115.582L149.116 116.781Z" fill="#7290B3"/>
<path d="M176.296 106.469C175.83 106.933 175.262 107.424 174.592 107.941C173.944 108.422 173.234 108.903 172.462 109.385C171.711 109.831 170.935 110.237 170.132 110.603C169.366 110.991 168.62 111.28 167.895 111.471C165.574 112.082 163.404 112.327 161.385 112.206C159.359 112.057 157.523 111.516 155.878 110.584C154.226 109.623 152.775 108.252 151.525 106.471C150.305 104.683 149.332 102.426 148.607 99.701C147.852 96.8597 147.614 94.332 147.895 92.1178C148.204 89.896 148.875 87.9823 149.907 86.3769C150.96 84.7349 152.284 83.4095 153.878 82.4007C155.494 81.3552 157.216 80.5921 159.044 80.1112C160.958 79.6075 162.603 79.3143 163.978 79.2318C165.375 79.1126 166.631 79.1697 167.749 79.4031C167.865 79.838 167.993 80.3782 168.133 81.0236C168.274 81.6691 168.408 82.3474 168.535 83.0585C168.662 83.7695 168.774 84.4844 168.872 85.2032C168.962 85.8929 169.033 86.5101 169.085 87.0549L167.954 87.3526L164.025 81.6855C163.66 81.5955 163.092 81.6208 162.323 81.7612C161.553 81.9017 160.805 82.0673 160.08 82.2581C158.629 82.6398 157.325 83.2778 156.165 84.1721C154.999 85.0374 154.072 86.1652 153.387 87.5554C152.722 88.909 152.327 90.5174 152.202 92.3806C152.069 94.2148 152.307 96.2771 152.916 98.5675C153.463 100.626 154.232 102.409 155.223 103.917C156.243 105.416 157.404 106.631 158.706 107.56C160.03 108.453 161.444 109.042 162.948 109.329C164.481 109.608 166.031 109.542 167.598 109.13C168.178 108.977 168.729 108.77 169.249 108.509C169.769 108.248 170.242 107.984 170.668 107.717C171.086 107.421 171.417 107.148 171.661 106.897C171.934 106.64 172.113 106.437 172.198 106.291L169.862 97.5061C169.092 97.6466 168.332 97.7069 167.582 97.6872C166.861 97.6598 166.136 97.6179 165.407 97.5615L165.071 96.3003L175.734 93.4953L176.069 94.7565C175.833 95.0358 175.535 95.3158 175.175 95.5966C174.815 95.8774 174.306 96.1819 173.648 96.5101L176.296 106.469Z" fill="#7290B3"/>
<path d="M193.769 106.788L182.312 107.994L182.168 106.697C183.272 106.038 184.426 105.554 185.629 105.247L182.683 78.7247C182.074 78.6683 181.46 78.582 180.844 78.466C180.224 78.3201 179.602 78.1593 178.979 77.9837L178.835 76.6866L190.292 75.48L190.436 76.777C189.925 77.0721 189.368 77.357 188.765 77.6317C188.158 77.8766 187.563 78.0901 186.98 78.2722L189.925 104.794C190.565 104.847 191.208 104.931 191.855 105.043C192.501 105.156 193.091 105.305 193.625 105.49L193.769 106.788Z" fill="#7290B3"/>
<path d="M219.118 75.6765L228.822 76.2291L228.758 77.5326C227.46 78.3 226.203 78.8293 224.987 79.1207L223.582 108.022L221.022 107.876L205.917 82.1812L204.335 78.5755L204.2 78.5679L204.434 82.0968L203.396 103.447C204.608 103.846 205.736 104.436 206.779 105.217L206.716 106.52L197.012 105.968L197.075 104.664C197.63 104.365 198.213 104.113 198.824 103.907C199.466 103.673 200.137 103.471 200.836 103.301L202.087 77.5461C201.5 77.2723 200.913 76.9835 200.327 76.6797C199.771 76.3776 199.245 76.0772 198.749 75.7785L198.81 74.52L206.403 74.9524L219.518 97.1082L221.396 101.091L221.576 101.102L221.539 97.2233L222.426 78.9748C221.81 78.6693 221.21 78.3497 220.626 78.0159C220.071 77.6839 219.547 77.3386 219.054 76.98L219.118 75.6765Z" fill="#7290B3"/>
<path d="M236.894 110.374L227.252 107.76L227.58 106.497C228.743 106.315 229.876 106.249 230.979 106.3L249.427 80.5771L250.687 80.9185L254.215 112.599C254.764 112.872 255.295 113.156 255.807 113.45C256.349 113.752 256.828 114.115 257.245 114.539L256.916 115.802L245.798 112.788L246.126 111.525C246.765 111.449 247.412 111.407 248.065 111.398C248.718 111.388 249.35 111.404 249.959 111.445L249.077 102.674L238.697 99.86L233.759 107.053C234.93 107.557 236.084 108.243 237.222 109.111L236.894 110.374ZM240.154 97.8308L248.927 100.209L247.896 90.0458L248.044 86.0765L247.957 86.053L245.875 89.5913L240.154 97.8308Z" fill="#7290B3"/>
<path d="M269.881 87.6544L280.967 93.0525L280.408 94.2319C279.645 94.1607 278.895 94.0624 278.158 93.937C277.434 93.7845 276.729 93.5913 276.043 93.3574L264.602 117.515L273.908 122.047L279.396 116.661L280.448 117.173C280.259 117.782 280.012 118.479 279.706 119.265C279.44 120.036 279.128 120.835 278.77 121.662C278.452 122.474 278.113 123.26 277.753 124.019C277.394 124.778 277.059 125.45 276.75 126.033L256.399 116.123L256.958 114.944C257.746 114.961 258.442 115.033 259.046 115.16C259.65 115.287 260.214 115.428 260.738 115.583L272.159 91.4661C271.59 91.0556 271.061 90.6311 270.571 90.1926C270.095 89.727 269.678 89.2741 269.323 88.8339L269.881 87.6544Z" fill="#7290B3"/>
<path d="M288.046 134.059L278.523 127.577L279.246 126.49C280.513 126.699 281.704 127.075 282.821 127.617L297.612 105.407C297.182 104.969 296.77 104.507 296.373 104.019C295.994 103.507 295.623 102.982 295.26 102.444L295.983 101.358L305.506 107.841L304.783 108.927C304.203 108.823 303.595 108.681 302.958 108.501C302.337 108.296 301.746 108.075 301.183 107.837L286.392 130.048C286.846 130.502 287.284 130.982 287.705 131.486C288.126 131.99 288.481 132.486 288.77 132.973L288.046 134.059Z" fill="#7290B3"/>
<path d="M304.757 148.885L295.605 140.16L296.497 139.208C297.139 139.488 297.761 139.79 298.361 140.115C298.984 140.459 299.619 140.857 300.265 141.308L318.578 121.775L313.595 117.024L307.467 120.073L306.653 119.297C306.998 118.797 307.406 118.253 307.875 117.664C308.365 117.054 308.855 116.444 309.346 115.833C309.878 115.222 310.39 114.632 310.881 114.064C311.393 113.474 311.854 112.961 312.264 112.523L331.188 130.563C330.778 131.001 330.305 131.483 329.77 132.009C329.236 132.536 328.67 133.074 328.072 133.623C327.517 134.171 326.951 134.709 326.374 135.237C325.839 135.763 325.324 136.225 324.828 136.623L323.981 135.816L326.689 129.507L321.705 124.756L303.392 144.288C303.854 144.936 304.273 145.542 304.648 146.107C305.045 146.693 305.379 147.301 305.65 147.933L304.757 148.885Z" fill="#7290B3"/>
<path d="M346.191 151.198L351.75 159.39L350.673 160.128C349.563 159.507 348.613 158.775 347.825 157.934L330.132 159.749L321.037 165.982C321.571 167.035 321.914 168.182 322.067 169.422L320.991 170.16L314.572 160.702L315.649 159.965C316.701 160.553 317.688 161.367 318.612 162.407L327.669 156.2L335.519 139.8C335.23 139.161 334.992 138.543 334.803 137.945C334.657 137.354 334.522 136.755 334.4 136.148L335.476 135.41L342.173 145.278L341.096 146.015C340.695 145.745 340.248 145.433 339.755 145.08C339.286 144.71 338.775 144.278 338.223 143.784L331.454 157.37L346.258 155.625C345.994 154.969 345.76 154.33 345.555 153.707C345.391 153.092 345.244 152.501 345.114 151.936L346.191 151.198Z" fill="#7290B3"/>
</svg>
